<svg width="1508" height="799" viewBox="0 0 1508 799" fill="none" xmlns="http://www.w3.org/2000/svg">
<path d="M87.4744 17.6771C87.0347 16.7312 87.0347 16.731 87.0347 14.9443C81.6205 16.8395 76.1435 17.5783 70.6665 17.1516L68.7606 14.9443C67.489 14.6225 66.0209 15.751 64.6278 16.8219C63.2907 17.8499 62.0227 18.8247 61.0636 18.413C60.9698 18.2527 60.8939 18.1383 60.8324 18.0456C60.5713 17.6522 60.5713 17.6521 60.5713 16.2057C59.3251 15.9637 58.1104 15.2169 56.9689 13.9984H56.2567L56.9689 16.2057V16.7313C53.2722 14.5762 49.4185 14.5762 45.7217 16.7313C44.4064 13.2289 40.8292 13.2657 37.3543 13.3015C35.4065 13.3215 33.491 13.3412 32.024 12.7372C28.0176 10.948 24.5303 11.9868 21.2289 12.9703C17.1606 14.1821 13.3745 15.31 9.24693 10.9586C6.49273 14.2198 3.0893 16.163 0 16.0792L7.69168e-05 782.921C2.79682 789.528 8.24811 788.989 13.4943 788.47C16.8439 788.14 20.1099 787.817 22.548 789.367C23.9893 789.529 25.4304 788.2 26.8717 786.871C28.2323 785.617 29.593 784.361 30.9535 784.361L33.7999 790.563C34.8754 791.497 36.2109 791.252 37.5606 791.006C38.9454 790.753 40.3451 790.498 41.4938 791.509C41.8038 791.767 41.9792 792.397 42.1611 793.05C42.4228 793.99 42.6978 794.977 43.4061 794.977C45.095 795.652 46.7714 794.853 48.3669 794.092C49.7542 793.431 51.0803 792.8 52.3008 793.19C53.0568 791.509 53.7684 789.722 54.48 787.935C55.1323 788.071 55.6356 788.754 56.1756 789.488C56.8874 790.454 57.6629 791.509 58.9272 791.509C59.5733 791.509 59.7538 790.905 59.9051 790.4C60.0143 790.036 60.1082 789.722 60.3505 789.722C62.7336 788.727 65.1721 788.727 67.5552 789.722C68.9274 789.392 70.2996 789.091 71.6781 788.788L71.6854 788.787C72.9405 788.511 74.2009 788.235 75.4714 787.935C78.9939 787.249 82.8638 788.428 86.9417 789.67C91.6169 791.094 96.5653 792.601 101.577 791.479C106.384 790.358 111.612 790.865 116.755 791.363C122.699 791.939 128.529 792.505 133.464 790.533C137.696 788.843 142.455 789.684 146.924 790.473C152.175 791.401 157.025 792.259 160.148 788.851C160.238 789.061 177.093 790.848 179.094 789.692C184.362 788.154 189.701 788.757 194.882 791.479C199.876 791.656 204.861 790.457 209.737 787.905C210.63 787.288 212.175 787.578 213.817 787.886C215.525 788.208 217.339 788.549 218.631 787.905C219.362 786.633 221.308 787.247 223.413 787.913C226.177 788.786 229.216 789.746 230.15 786.644C230.782 787.065 231.42 787.511 232.06 787.961C235.431 790.325 238.904 792.762 242.335 791.775C242.707 791.885 242.871 791.737 243.058 791.571C243.23 791.418 243.42 791.249 243.803 791.249V786.836H244.248C244.628 788.906 245.207 790.741 245.939 792.195C248.65 790.725 255.144 788.517 256.967 792.195L257.019 792.169C257.413 791.961 257.631 791.847 257.761 791.714C257.919 791.549 257.947 791.357 258.01 790.928C258.043 790.695 258.087 790.393 258.167 789.988C258.838 790.403 259.431 791.325 259.858 792.616C262.964 792.69 266.065 791.63 269.155 790.572C273.752 789 278.325 787.436 282.85 789.627C283.896 789.949 285.046 789.776 286.123 789.616C287.153 789.462 288.115 789.318 288.854 789.627C291.611 791.121 294.432 791.862 297.261 791.833C299.371 791.433 301.386 792.56 303.346 793.658C306.01 795.149 308.574 796.584 311.136 794.04L311.188 793.989C311.525 793.648 311.66 793.51 311.714 793.368C311.75 793.272 311.75 793.175 311.751 793.01C311.753 792.789 311.756 792.448 311.847 791.833C311.847 791.833 319.587 794.671 320.52 794.04C320.987 793.725 321.465 793.436 321.943 793.147C322.421 792.858 322.899 792.569 323.366 792.253C329.503 793.305 335.863 794.566 341.6 796.668L367.261 795.952C368.697 796.042 370.133 796.149 371.569 796.257H371.574C375.161 796.524 378.75 796.793 382.337 796.793C384.31 795.807 386.334 795.524 388.341 795.952C392.394 797.456 396.477 798.474 400.572 799C402.026 797.97 403.514 797.232 405.02 796.793C413.537 799.073 422.127 799.531 430.681 798.159H438.107L441.22 795.531C442.286 795.828 443.344 796.102 444.396 796.373L444.4 796.375C445.583 796.68 446.76 796.985 447.935 797.318C448.609 797.388 449.208 797.451 449.74 797.507C452.915 797.838 453.756 797.927 454.298 797.77C454.493 797.715 454.651 797.626 454.863 797.507C455.513 797.142 456.687 796.483 461.083 795.531H473.091C482.57 792.695 481.551 794.052 480.929 794.88C480.399 795.585 480.159 795.903 486.978 792.904L492.224 794.165C496.223 794.76 500.234 794.76 504.232 794.165L511.393 797.318C515.74 799.03 519.668 796.864 523.034 795.008C525.041 793.9 526.848 792.904 528.427 792.904C529.11 792.904 529.676 793.419 530.283 793.971C531.176 794.784 532.155 795.675 533.718 795.111C534.376 794.843 534.861 793.918 535.301 793.076C535.725 792.268 536.107 791.537 536.564 791.537C537.378 790.939 538.398 791.627 539.439 792.329C540.957 793.353 542.518 794.406 543.547 791.537C548.302 795.383 554.657 794.63 560.843 793.898C563.279 793.609 565.689 793.324 567.963 793.324C570.636 793.154 573.402 792.935 576.233 792.71C585.695 791.958 595.893 791.149 605.854 791.958C607.272 791.015 608.779 789.968 610.286 788.92L610.301 788.909L617.017 791.117C618.062 791.241 618.799 789.841 619.42 788.666C619.856 787.84 620.234 787.124 620.619 787.124C623.065 788.159 625.368 790.574 627.334 794.165C628.357 793.908 629.638 793.907 630.989 793.904C634.629 793.899 638.782 793.892 639.787 788.909C640.868 787.889 642.269 789.094 643.768 790.385C644.43 790.954 645.11 791.54 645.79 791.958C648.92 791.706 652.09 791.431 655.272 791.154C658.737 790.852 662.216 790.551 665.671 790.276C667.271 791.117 668.696 791.957 670.118 792.904C670.775 792.802 671.409 792.291 671.957 791.424C672.503 790.556 672.942 789.363 673.231 787.964C677.269 791.162 678.987 790.915 680.547 790.691C682.268 790.445 683.798 790.225 688.044 794.691C688.552 794.267 689.096 793.773 689.646 793.27C690.736 792.276 691.857 791.255 692.803 790.696C693.514 794.165 694.938 794.165 696.895 794.165C697.993 791.24 698.665 787.553 698.807 783.655H699.029C702.375 791 706.7 795.35 711.26 795.952C713.327 791.352 715.985 788.514 718.812 787.885C721.64 787.257 724.475 788.875 726.87 792.483H727.092L727.276 792.248C728.802 790.305 729.606 789.279 730.205 785.337L734.653 789.856C736.369 788.802 737.984 786.982 739.411 784.496L744.214 788.489C745.601 788.758 746.534 787.928 747.52 787.053C748.461 786.216 749.451 785.337 750.93 785.337L753.554 789.33C755.113 789.102 756.632 788.061 758 786.283C759.478 786.488 760.182 787.451 760.973 788.534C761.396 789.114 761.844 789.727 762.448 790.276L767.474 785.861C768.307 787.011 768.466 786.736 768.703 786.326C768.921 785.95 769.204 785.459 770.142 785.861C771.267 786.345 772.114 787.054 772.853 787.675C774.687 789.214 775.868 790.206 779.037 785.861C779.46 786.644 780.057 787.084 780.684 787.548C781.576 788.205 782.528 788.908 783.129 790.696C785.354 791.246 787.6 790.337 789.622 788.069C791.013 788.974 792.367 790.17 793.669 791.643L799.895 788.489C801.937 790.59 804.197 791.213 806.388 790.276C806.623 790.078 806.75 789.716 806.881 789.343C807.099 788.723 807.33 788.069 808.077 788.069C809.28 788.385 810.761 788.712 812.365 789.067C815.565 789.775 819.258 790.593 822.22 791.643C823.421 792.063 833.471 788.069 833.471 788.069C836.51 791.752 838.578 791.026 840.924 790.203C842.596 789.617 844.408 788.981 846.814 789.856C850.045 791.507 853.337 792.388 856.642 792.483C857.787 792.294 858.942 791.698 860.097 791.102C861.499 790.38 862.902 789.655 864.293 789.655C867.902 790.419 871.54 789.994 875.1 788.394C876.037 787.938 876.462 788.735 876.819 789.407C877.038 789.817 877.231 790.181 877.501 790.181H878.701L879.368 788.184C880.013 787.803 882.108 788.22 884.336 788.663C887.026 789.199 889.911 789.772 890.665 789.025C893.073 786.649 899.226 790.036 904.116 792.726C907.446 794.559 910.191 796.069 910.767 795.218C913.411 792.491 916.294 791.302 919.172 791.749L918.461 788.597C917.266 788.966 916.055 788.966 914.859 788.597H914.37L914.146 785.023C914.328 785.031 914.524 785.035 914.73 785.041C917.357 785.106 921.681 785.213 919.661 791.645L920.106 792.59C922.12 793.043 924.139 794.054 926.154 795.063C930.108 797.043 934.047 799.015 937.896 796.746C939.847 798.098 941.912 798.279 943.9 797.272C945.296 796.922 946.893 797.39 948.513 797.865C951.279 798.677 954.111 799.507 956.129 796.326L957.064 798.533C962.071 795.501 967.249 794.33 972.407 795.063C973.323 795.149 974.234 795.303 975.139 795.456C976.473 795.682 977.798 795.905 979.123 795.905C981.846 793.984 984.704 793.377 987.528 794.118C987.626 793.82 987.714 793.536 987.798 793.264L987.799 793.262C988.248 791.81 988.577 790.744 989.663 790.124L990.152 794.118C991.747 792.862 993.166 791.501 994.583 790.139L994.599 790.124C995.045 791.85 995.233 792.002 996.039 792.653C996.116 792.715 996.2 792.783 996.29 792.857C996.988 792.401 997.348 791.821 997.721 791.219C998.037 790.711 998.364 790.185 998.913 789.704C998.913 789.798 998.903 789.903 998.889 790.015C998.875 790.127 998.856 790.244 998.837 790.365C998.701 791.226 998.54 792.238 999.892 791.911C1000.9 791.666 1001.38 791.1 1001.89 790.505C1002.26 790.076 1002.63 789.635 1003.23 789.283C1003.19 787.829 1003.17 786.371 1003.18 784.914C1003.46 785.136 1003.72 785.414 1003.98 785.75C1004.6 785.386 1005.17 784.784 1005.7 783.973L1005.63 784.909C1006.81 783.973 1008.01 783.236 1009.23 782.702L1009.29 782.271C1009.65 782.501 1010 782.773 1010.34 783.083H1010.83C1010.03 783.608 1009.23 784.107 1008.43 784.606C1007.63 785.106 1006.83 785.605 1006.03 786.13H1005.54L1005.81 791.07C1006.93 790.776 1006.96 790.848 1007.58 792.055L1007.72 792.331C1008.6 792.145 1009.51 791.634 1010.39 791.136C1012.47 789.958 1014.42 788.858 1015.63 792.331L1016.35 793.278L1016.57 788.758C1016.75 788.89 1016.97 789.045 1017.2 789.208L1017.21 789.218L1017.21 789.219C1018.06 789.831 1019.05 790.544 1019.19 790.544H1019.68L1018.97 786.55C1017.81 785.709 1017.59 785.92 1016.84 787.917L1015.15 786.972L1013.46 780.876L1015.15 782.137C1015.49 781.705 1015.85 782.784 1016.21 783.882C1016.56 784.959 1016.92 786.054 1017.28 785.75C1017.42 781.566 1018.09 777.575 1019.19 774.294H1019.46C1019.55 774.453 1019.62 774.59 1019.69 774.713C1020.13 775.493 1020.28 775.768 1020.66 777.763C1021.11 780.074 1020.44 782.387 1019.19 783.122V783.963L1022.53 781.296C1022.96 780.756 1023.34 781.478 1023.67 782.093C1024 782.725 1024.28 783.247 1024.48 782.176H1025.2L1027.11 781.296C1025.24 783.937 1023.04 785.011 1020.88 784.344C1021.03 785.257 1021.16 785.841 1021.27 786.321C1021.48 787.276 1021.59 787.814 1021.59 789.704H1021.82L1024.48 788.758C1024.41 788.439 1024.36 788.2 1024.33 788.019C1024.24 787.591 1024.22 787.487 1024.12 787.402C1024.08 787.371 1024.03 787.342 1023.96 787.299C1023.86 787.238 1023.72 787.146 1023.51 786.972L1024 786.13C1024.9 786.832 1025.72 788.018 1026.4 789.598H1027.6L1028.09 788.337L1026.62 785.709V783.922C1027.07 783.371 1027.56 783.083 1028.06 783.083C1028.57 783.083 1029.06 783.371 1029.51 783.922L1029.54 783.742C1030.04 780.946 1031.02 775.485 1032.85 774.148H1036.23C1037.05 773.196 1037.13 772.614 1037.2 772.039C1037.28 771.409 1037.36 770.785 1038.43 769.686H1039.18V774.101L1038.14 774.148C1037.93 775.625 1038.08 775.926 1038.43 776.624C1038.6 776.969 1038.82 777.412 1039.07 778.142C1036.73 777.063 1036 779.059 1035.23 781.184C1034.8 782.368 1034.35 783.591 1033.6 784.344C1033.84 784.734 1034.08 784.963 1034.31 785.186C1034.64 785.504 1034.96 785.81 1035.25 786.55C1035.79 786.31 1036.28 785.686 1036.67 784.763L1037.16 786.55C1039.71 786.755 1042.25 787.66 1044.8 788.564C1048.75 789.965 1052.68 791.363 1056.59 790.151C1056.75 790.201 1056.89 790.257 1057.05 790.318C1057.36 790.446 1057.66 790.596 1057.98 790.744C1058.79 791.132 1059.59 791.518 1060.42 791.518C1064.3 789.996 1068.27 789.996 1072.16 791.518C1071.67 791.938 1074.29 795.092 1075.05 795.092C1075.34 794.72 1075.6 794.211 1075.81 793.596C1076.01 792.982 1076.17 792.275 1076.25 791.518C1082.55 788.212 1089.02 787.466 1095.42 789.311L1097.12 793.305H1098.05L1097.34 789.731L1097.56 788.47C1100.32 788.906 1102.7 788.983 1104.86 789.052C1109.98 789.215 1113.92 789.34 1119.16 794.146H1120.33V793.305C1120.1 793.108 1119.87 792.912 1119.64 792.715V792.713C1118.52 791.751 1117.39 790.778 1116.27 789.731L1115.79 788.47C1115.89 788.443 1115.98 788.434 1116.09 788.439C1116.15 788.442 1116.21 788.453 1116.27 788.47C1118.31 789.945 1120.48 789.945 1122.51 788.47C1122.81 788.957 1123.06 789.616 1123.23 790.386C1123.4 791.157 1123.49 792.016 1123.48 792.885C1124.64 791.938 1124.64 790.571 1124.64 787.525C1129.08 788.364 1137 788.89 1142.43 788.89L1148.44 787.525C1151.38 788.537 1154.35 788.993 1157.32 788.89C1160.86 786.92 1164.5 786.458 1168.1 787.525C1168.64 787.124 1169.14 786.374 1169.51 785.353C1169.9 784.334 1170.17 783.087 1170.27 781.744H1170.49C1171.09 782.914 1171.07 783.39 1171.03 784.632C1171 785.062 1170.98 785.586 1170.98 786.264C1173.95 787.368 1176.96 787.046 1179.87 785.316C1181.65 786.681 1183.53 787.145 1185.4 786.683L1190.68 785.738C1192.52 787.219 1194.47 787.826 1196.42 787.525L1196.77 787.304L1197.14 787.084C1198.32 786.363 1199.58 785.594 1200.87 784.897C1203.54 784.644 1206.54 784.914 1209.7 785.201C1214.42 785.629 1219.54 786.092 1224.57 784.897C1225.52 784.683 1227.62 785.336 1229.55 785.935C1231.43 786.516 1233.14 787.046 1233.47 786.683C1233.71 786.417 1233.75 785.932 1233.81 785.446C1233.89 784.585 1233.97 783.72 1235.11 784.055C1236.65 784.512 1238.17 785.047 1239.7 785.592L1239.72 785.598L1240.41 785.842C1244.06 784.736 1247.75 784.561 1251.43 785.316C1256.12 784.498 1260.77 784.607 1265.24 784.712C1270.53 784.835 1275.58 784.952 1280.2 783.53C1280.9 783.326 1281.74 784.039 1282.56 784.742C1283.44 785.486 1284.3 786.221 1284.96 785.842C1288.16 784.791 1291.38 784.791 1294.58 785.842C1299.01 784.652 1303.46 784.055 1307.91 784.055C1314.03 786.416 1320.23 786.7 1326.37 784.897C1328.8 783.977 1331.41 784.63 1333.91 785.255C1335.98 785.773 1337.96 786.27 1339.71 785.842C1345.2 784.474 1351.07 784.333 1356.9 784.193C1363.6 784.032 1370.24 783.872 1376.14 781.849C1377.79 781.249 1379.95 781.695 1382.26 782.172C1385.64 782.868 1389.33 783.629 1392.24 781.323L1391.75 784.055L1395.57 781.849L1396.06 783.53C1397.9 783.532 1399.72 782.487 1401.36 780.482C1402.51 781.724 1403.63 783.202 1404.69 784.897C1406.96 783.082 1409.45 783.595 1411.9 784.1C1415 784.738 1418.04 785.365 1420.52 781.323C1420.68 781.657 1420.78 781.873 1420.85 782.092C1420.96 782.493 1420.96 782.9 1420.96 784.055C1426.38 782.161 1431.86 781.422 1437.33 781.849L1439.24 784.055C1440.52 784.378 1441.98 783.248 1443.37 782.178C1444.71 781.15 1445.98 780.176 1446.94 780.588C1447.03 780.748 1447.11 780.862 1447.17 780.955C1447.23 781.044 1447.27 781.112 1447.3 781.183C1447.43 781.422 1447.43 781.676 1447.43 782.794C1448.67 783.036 1449.89 783.784 1451.03 785.001H1451.75L1451.03 782.794V782.269C1454.73 784.424 1458.58 784.424 1462.28 782.269C1463.59 785.772 1467.17 785.735 1470.64 785.698C1472.59 785.678 1474.51 785.659 1475.97 786.264C1479.98 788.052 1483.47 787.014 1486.77 786.03C1490.83 784.818 1494.63 783.69 1498.75 788.041C1501.5 784.78 1504.91 782.837 1508 782.921V16.0791C1505.21 9.47187 1499.75 10.0108 1494.51 10.5294C1491.16 10.8605 1487.89 11.1833 1485.45 9.63269C1484.01 9.47051 1482.57 10.7997 1481.13 12.1289C1479.77 13.3837 1478.4 14.6386 1477.05 14.6386L1474.2 8.43758C1473.13 7.50381 1471.79 7.74779 1470.44 7.99434C1469.06 8.24731 1467.65 8.503 1466.5 7.49168C1466.19 7.233 1466.02 6.60308 1465.84 5.94997C1465.58 5.01063 1465.3 4.02328 1464.6 4.02328C1462.91 3.34867 1461.23 4.1475 1459.63 4.90784C1458.24 5.56899 1456.92 6.20101 1455.7 5.80995C1454.94 7.49155 1454.23 9.27837 1453.52 11.0652C1452.86 10.9291 1452.36 10.2455 1451.82 9.51199C1451.11 8.54513 1450.34 7.49168 1449.08 7.49168C1448.43 7.49168 1448.24 8.0949 1448.1 8.60038C1447.98 8.96486 1447.89 9.27852 1447.65 9.27852C1445.27 10.2727 1442.83 10.2727 1440.44 9.27852C1439.07 9.60884 1437.7 9.91028 1436.31 10.2131C1435.06 10.4884 1433.8 10.7649 1432.53 11.0652C1429 11.7507 1425.13 10.5719 1421.06 9.32967C1416.38 7.90558 1411.43 6.39817 1406.42 7.52093C1401.62 8.64233 1396.39 8.13529 1391.25 7.63651C1385.31 7.06006 1379.48 6.49463 1374.53 8.46682C1370.3 10.158 1365.54 9.31682 1361.08 8.527C1355.82 7.59878 1350.97 6.74144 1347.86 10.1486C1347.76 9.93835 1330.91 8.15138 1328.91 9.30747C1323.64 10.8468 1318.3 10.2427 1313.12 7.52093C1308.12 7.34406 1303.14 8.54327 1298.27 11.0944C1297.37 11.7124 1295.83 11.422 1294.18 11.1134C1292.48 10.7921 1290.66 10.4512 1289.37 11.0944C1288.64 12.3673 1286.69 11.7526 1284.58 11.0873C1281.82 10.2143 1278.79 9.25406 1277.85 12.3556C1277.22 11.9351 1276.58 11.4881 1275.94 11.0384C1272.57 8.67408 1269.1 6.23851 1265.67 7.22508C1265.29 7.11554 1265.12 7.26283 1264.94 7.42902C1264.77 7.58174 1264.58 7.75042 1264.2 7.75042V12.165H1263.75C1263.37 10.0936 1262.79 8.25867 1262.06 6.80453C1259.35 8.27606 1252.86 10.4831 1251.04 6.80453C1250.61 7.02922 1250.38 7.14715 1250.24 7.28672C1249.99 7.53884 1250.07 7.86152 1249.84 9.01162C1249.16 8.5975 1248.56 7.67427 1248.15 6.384C1245.04 6.31048 1241.93 7.3711 1238.84 8.42794C1234.24 10 1229.68 11.5637 1225.15 9.37383C1224.11 9.05153 1222.95 9.22346 1221.88 9.3844C1220.84 9.53833 1219.88 9.68219 1219.14 9.37383C1216.39 7.87862 1213.56 7.1381 1210.74 7.16676C1208.63 7.5676 1206.62 6.43952 1204.66 5.34233C1201.99 3.85045 1199.42 2.41567 1196.87 4.95938C1196.49 5.3394 1196.35 5.48197 1196.28 5.63241C1196.2 5.85643 1196.32 6.09788 1196.15 7.16676C1196.15 7.16676 1188.41 4.32879 1187.48 4.95938C1187.01 5.27468 1186.53 5.56374 1186.05 5.8528C1185.58 6.14185 1185.1 6.43092 1184.64 6.74621C1178.49 5.69523 1172.14 4.43389 1166.4 2.33176L1140.74 3.04816C1139.3 2.95808 1137.87 2.85084 1136.43 2.7436C1132.85 2.47549 1129.25 2.20737 1125.66 2.20737C1123.69 3.19302 1121.67 3.47617 1119.65 3.04816C1115.61 1.54301 1111.52 0.525641 1107.43 0C1105.97 1.02936 1104.49 1.76798 1102.98 2.20737C1094.46 -0.0738183 1085.87 -0.531196 1077.32 0.841085H1069.89L1066.78 3.46871C1065.72 3.17154 1064.65 2.89771 1063.6 2.62525C1062.42 2.31938 1061.24 2.01523 1060.06 1.68173C1055.37 1.19808 1054.34 1.0475 1053.7 1.22959C1052.91 1.45706 1052.75 2.20369 1046.91 3.46871H1034.91C1025.43 6.30446 1026.45 4.94733 1027.07 4.12064C1027.6 3.41534 1027.84 3.09615 1021.02 6.09618L1015.77 4.835C1011.78 4.23963 1007.77 4.23963 1003.77 4.835L996.607 1.68173C992.26 -0.0304151 988.332 2.13576 984.966 3.99255C982.959 5.09933 981.152 6.09618 979.574 6.09618C978.89 6.09618 978.324 5.58048 977.717 5.02878C976.824 4.21631 975.845 3.32576 974.282 3.88911C973.624 4.15731 973.14 5.08263 972.699 5.92442C972.275 6.73196 971.893 7.46262 971.436 7.46262C970.622 8.06108 969.602 7.3731 968.562 6.67128C967.043 5.64745 965.482 4.59417 964.453 7.46262C959.698 3.61693 953.343 4.36959 947.158 5.10201C944.721 5.39048 942.311 5.67579 940.037 5.67579C937.364 5.84524 934.598 6.06487 931.767 6.28975C922.305 7.0412 912.107 7.85111 902.146 7.04208C900.728 7.98505 899.221 9.03238 897.714 10.08L897.699 10.0902L890.983 7.88287C889.938 7.75945 889.201 9.1581 888.58 10.3339C888.144 11.1605 887.766 11.8769 887.381 11.8769C884.935 10.8414 882.632 8.42577 880.666 4.835C879.643 5.09102 878.362 5.09301 877.012 5.09512C873.371 5.10081 869.218 5.1073 868.213 10.0902C867.132 11.1114 865.731 9.90544 864.232 8.61496C863.57 8.04584 862.89 7.46028 862.209 7.04208C859.078 7.29381 855.907 7.56961 852.724 7.84641C849.26 8.1476 845.783 8.44998 842.329 8.72382C840.729 7.88302 839.304 7.04223 837.882 6.09619C837.225 6.19822 836.591 6.70866 836.043 7.57621C835.497 8.44375 835.057 9.63739 834.769 11.0361C830.731 7.83824 829.013 8.08477 827.453 8.30872C825.732 8.55584 824.202 8.77545 819.956 4.30937C819.448 4.73312 818.905 5.22808 818.354 5.73047C817.264 6.72327 816.143 7.74504 815.197 8.30342C814.486 4.83486 813.062 4.83501 811.105 4.83501C810.007 7.76097 809.335 11.447 809.193 15.3456H808.971C805.626 7.99981 801.3 3.64954 796.74 3.04817C794.673 7.64783 792.015 10.4865 789.188 11.1148C786.361 11.7429 783.525 10.1249 781.13 6.51674H780.908L780.724 6.75208C779.198 8.69546 778.394 9.72072 777.795 13.6637L773.347 9.14436C771.631 10.1986 770.017 12.0177 768.589 14.5044L763.786 10.5105C762.399 10.2419 761.466 11.0715 760.48 11.9469C759.539 12.7844 758.549 13.6637 757.07 13.6637L754.446 9.66971C752.886 9.8976 751.368 10.9386 750 12.7179C748.522 12.5124 747.818 11.5485 747.027 10.4655C746.604 9.88636 746.157 9.27318 745.552 8.72382L740.526 13.1381C739.693 11.9893 739.534 12.2641 739.298 12.6733C739.08 13.0503 738.796 13.5413 737.858 13.1381C736.733 12.6545 735.886 11.945 735.147 11.3243C733.314 9.78668 732.132 8.79496 728.963 13.1381C728.54 12.3564 727.943 11.9156 727.316 11.4525C726.424 10.7948 725.472 10.092 724.871 8.30342C722.646 7.75381 720.4 8.66287 718.379 10.9309C716.987 10.0252 715.633 8.82936 714.331 7.35739L708.105 10.5105C706.063 8.40939 703.803 7.78772 701.612 8.72382C701.378 8.92162 701.25 9.28323 701.119 9.65729C700.901 10.277 700.67 10.9309 699.923 10.9309C698.72 10.6151 697.239 10.2876 695.635 9.93271C692.435 9.22465 688.742 8.40764 685.78 7.35739C684.579 6.93699 674.529 10.9309 674.529 10.9309C671.49 7.24882 669.422 7.97412 667.076 8.79687C665.405 9.38324 663.592 10.0191 661.186 9.14436C657.955 7.49231 654.663 6.61205 651.358 6.51674C650.213 6.70663 649.058 7.30188 647.903 7.89758C646.501 8.62078 645.098 9.34462 643.707 9.34462C640.098 8.58174 636.461 9.00652 632.9 10.6061C631.963 11.0625 631.538 10.2648 631.181 9.59338C630.962 9.1826 630.77 8.81913 630.499 8.81913H629.299L628.632 10.8161C627.987 11.197 625.892 10.7802 623.664 10.337C620.974 9.80153 618.089 9.22761 617.335 9.97522C614.927 12.3511 608.774 8.96473 603.884 6.27354C600.554 4.44085 597.809 2.93058 597.233 3.78212C594.589 6.50871 591.706 7.69827 588.828 7.25083L589.539 10.4038C590.735 10.0338 591.945 10.0338 593.141 10.4038H593.631L593.854 13.9773C593.672 13.9696 593.476 13.9648 593.27 13.9597C590.643 13.8944 586.318 13.787 588.339 7.35564L587.894 6.40975C585.881 5.95747 583.861 4.94629 581.846 3.93706C577.893 1.95722 573.954 -0.015097 570.104 2.25446C568.152 0.902207 566.088 0.721391 564.101 1.72868C562.704 2.07815 561.107 1.60985 559.487 1.13478C556.721 0.32399 553.889 -0.506542 551.871 2.67457L550.936 0.467487C545.929 3.49972 540.753 4.67013 535.593 3.93605C534.677 3.85106 533.766 3.69733 532.861 3.54434C531.526 3.31892 530.202 3.09511 528.877 3.09511C526.154 5.0151 523.296 5.62289 520.472 4.88208C520.374 5.181 520.285 5.4668 520.201 5.73908C519.752 7.18994 519.423 8.25655 518.337 8.87599L517.848 4.88208C516.253 6.13833 514.834 7.49992 513.417 8.86088L513.401 8.87599C512.955 7.15003 512.767 6.99863 511.961 6.34683C511.884 6.2842 511.8 6.21697 511.711 6.14328C511.012 6.59901 510.652 7.1782 510.279 7.78052C509.963 8.28944 509.637 8.81486 509.088 9.29624C509.088 9.11079 509.124 8.87932 509.163 8.63568C509.299 7.77466 509.461 6.7615 508.108 7.08917C507.098 7.33406 506.616 7.89994 506.108 8.49597C505.744 8.9231 505.367 9.36572 504.772 9.71679C504.811 11.1717 504.829 12.629 504.822 14.086C504.545 13.8641 504.276 13.5851 504.016 13.25C503.405 13.6145 502.826 14.2169 502.302 15.0276L502.372 14.0908C501.194 15.027 499.99 15.7645 498.768 16.2978L498.706 16.7291C498.351 16.4985 498.001 16.228 497.657 15.9178H497.168C497.969 15.3923 498.768 14.8931 499.569 14.3938C500.37 13.8944 501.171 13.3952 501.971 12.8698H502.46L502.193 7.92982C501.073 8.22402 501.037 8.15219 500.422 6.94578C500.379 6.85932 500.332 6.76703 500.281 6.66862C499.397 6.85575 498.493 7.36685 497.614 7.86405C495.53 9.04233 493.584 10.1426 492.365 6.66862L491.653 5.72273L491.431 10.2421C491.241 10.107 491.019 9.94763 490.787 9.78071C489.937 9.169 488.947 8.45546 488.807 8.45546H488.318L489.03 12.4495C490.186 13.2904 490.408 13.0801 491.164 11.0831L492.854 12.029L494.545 18.1249L492.854 16.8638C492.507 17.2959 492.153 16.2159 491.794 15.1184C491.441 14.0407 491.082 12.9462 490.718 13.25C490.58 17.4344 489.914 21.4245 488.807 24.7064H488.54C488.454 24.5478 488.378 24.4111 488.309 24.2872C487.875 23.5068 487.722 23.233 487.34 21.2378C486.894 18.9254 487.562 16.6132 488.807 15.8775V15.0367L485.472 17.7048C485.044 18.2432 484.661 17.5226 484.334 16.9071C483.997 16.2747 483.72 15.7535 483.515 16.8234H482.803L480.89 17.7048C482.762 15.0636 484.957 13.9896 487.116 14.6566C486.968 13.7435 486.84 13.1589 486.734 12.6795C486.524 11.724 486.405 11.1858 486.405 9.29624H486.183L483.515 10.2421C483.755 11.3157 483.74 11.4786 483.88 11.5973C483.974 11.6761 484.138 11.7354 484.494 12.029L484.004 12.8698C483.1 12.1689 482.278 10.9816 481.603 9.40149H480.401L479.912 10.6627L481.38 13.2903V15.0772C480.934 15.6296 480.439 15.9182 479.935 15.9182C479.431 15.9182 478.936 15.6296 478.49 15.0772L478.457 15.2589C477.958 18.0539 476.982 23.5151 475.155 24.8518H471.774C470.947 25.8047 470.874 26.3856 470.802 26.9611C470.722 27.5917 470.644 28.2156 469.574 29.3146H468.818V24.9001L469.861 24.8518C470.069 23.3751 469.919 23.0745 469.571 22.3763C469.399 22.0309 469.178 21.5882 468.928 20.8577C471.269 21.9376 471.998 19.9408 472.772 17.8165C473.203 16.6325 473.65 15.409 474.398 14.6566C474.16 14.2662 473.921 14.037 473.688 13.8137C473.358 13.496 473.039 13.1903 472.752 12.4495C472.213 12.6907 471.716 13.3137 471.328 14.2362L470.839 12.4495C468.293 12.2441 465.746 11.3394 463.201 10.4357C459.257 9.03518 455.32 7.63711 451.405 8.84837C450.94 8.69663 450.481 8.47638 450.022 8.25686C449.212 7.86826 448.406 7.48194 447.583 7.48194C443.697 9.00317 439.729 9.00317 435.843 7.48194C436.325 7.06154 433.708 3.90843 432.954 3.90843C432.659 4.28044 432.398 4.78912 432.189 5.4035C431.99 6.01786 431.832 6.7249 431.749 7.48194C425.455 10.7882 418.973 11.5345 412.585 9.68902L410.888 5.6954H409.956L410.668 9.26892L410.448 10.5301C407.677 10.0935 405.305 10.0178 403.144 9.94873C398.021 9.78509 394.085 9.65937 388.834 4.85432H387.671V5.6954C387.899 5.89177 388.128 6.08814 388.357 6.28502C389.477 7.24727 390.612 8.22182 391.724 9.26892L392.206 10.5301C392.049 10.5735 391.881 10.5735 391.724 10.5301C389.693 9.05491 387.525 9.05491 385.493 10.5301C385.19 10.043 384.938 9.38469 384.77 8.6142C384.603 7.84372 384.509 6.98524 384.519 6.1155C383.356 7.06139 383.356 8.42842 383.356 11.476C378.917 10.6352 370.999 10.1096 365.575 10.1096L359.564 11.476C356.621 10.4632 353.647 10.0061 350.673 10.1096C347.143 12.0798 343.5 12.5426 339.907 11.476C339.363 11.8764 338.86 12.627 338.483 13.6462C338.095 14.6655 337.834 15.9141 337.729 17.2566H337.509C336.911 16.0861 336.93 15.6108 336.979 14.3684C336.996 13.9374 337.017 13.414 337.017 12.7372C334.053 11.6321 331.037 11.9538 328.126 13.683C326.345 12.32 324.471 11.8544 322.608 12.3166L317.319 13.263C315.475 11.7815 313.527 11.1743 311.58 11.476C311.344 11.62 311.103 11.7671 310.859 11.9162C309.679 12.6378 308.423 13.4068 307.129 14.1036C304.455 14.3565 301.465 14.0855 298.303 13.7989C293.577 13.3707 288.462 12.9072 283.431 14.1036C282.48 14.3169 280.374 13.6641 278.443 13.0654C276.569 12.4844 274.86 11.9543 274.529 12.3166C274.291 12.5825 274.242 13.0678 274.194 13.5545C274.109 14.415 274.022 15.2799 272.885 14.9443C271.339 14.4864 269.824 13.9489 268.279 13.401L268.204 13.3745L267.597 13.1577C263.942 14.2632 260.245 14.4392 256.57 13.683C251.879 14.5023 247.235 14.3937 242.758 14.2889C237.469 14.1653 232.413 14.047 227.791 15.47C227.1 15.6743 226.263 14.9613 225.437 14.2582C224.562 13.5133 223.7 12.7793 223.037 13.1577C219.844 14.2092 216.618 14.2092 213.424 13.1577C208.995 14.3479 204.544 14.9442 200.082 14.9443C193.977 12.5839 187.767 12.3009 181.631 14.1036C179.194 15.0239 176.586 14.3703 174.091 13.745C172.026 13.2275 170.038 12.7294 168.289 13.1577C162.805 14.5264 156.929 14.6675 151.102 14.8073C144.401 14.9683 137.765 15.1276 131.867 17.1516C130.217 17.7504 128.055 17.3049 125.74 16.8279C122.365 16.1327 118.667 15.3708 115.76 17.6772L116.253 14.9443L112.429 17.1516L111.937 15.47C110.094 15.4673 108.283 16.5128 106.649 18.518C105.487 17.2758 104.366 15.7986 103.309 14.1036C101.047 15.9179 98.5569 15.4055 96.0982 14.8993C93.0021 14.262 89.9552 13.6348 87.4744 17.6771Z" fill="#EBFA9E"/>
</svg>
