<svg width="1280" height="472" viewBox="0 0 1280 472" fill="none" xmlns="http://www.w3.org/2000/svg">
<path d="M74.2489 7.61062C73.8756 7.20338 73.8755 7.20334 73.8755 6.43408C69.28 7.25001 64.6311 7.56814 59.9822 7.38444L58.3645 6.43408C57.285 6.29555 56.039 6.78144 54.8565 7.24251C53.7216 7.68508 52.6452 8.10478 51.8312 7.92749C51.7515 7.85849 51.6871 7.80922 51.6349 7.76933C51.4134 7.59993 51.4133 7.59989 51.4133 6.9772C50.3555 6.87298 49.3245 6.55145 48.3556 6.02684H47.7511L48.3556 6.9772V7.20344C45.2178 6.27561 41.9467 6.27561 38.8089 7.20344C37.6925 5.69556 34.656 5.71141 31.7065 5.7268C30.0533 5.73543 28.4274 5.74392 27.1822 5.48385C23.7816 4.71354 20.8215 5.16079 18.0192 5.58421C14.5661 6.10597 11.3524 6.59155 7.84885 4.71808C5.51107 6.12212 2.62222 6.95882 0 6.9227L6.52874e-05 465.077C2.37396 467.922 7.00105 467.69 11.4541 467.467C14.2972 467.324 17.0694 467.185 19.1389 467.853C20.3622 467.923 21.5856 467.35 22.8089 466.778C23.9638 466.238 25.1187 465.698 26.2736 465.698L28.6895 468.367C29.6024 468.769 30.7361 468.664 31.8816 468.558C33.0571 468.449 34.2452 468.339 35.2201 468.775C35.4834 468.886 35.6323 469.157 35.7867 469.438C36.0087 469.843 36.2421 470.268 36.8433 470.268C38.277 470.558 39.6998 470.214 41.0541 469.887C42.2316 469.602 43.3573 469.33 44.3932 469.499C45.0349 468.775 45.639 468.005 46.243 467.236C46.7967 467.295 47.2239 467.589 47.6822 467.905C48.2864 468.321 48.9446 468.775 50.0178 468.775C50.5662 468.775 50.7194 468.515 50.8479 468.297C50.9405 468.14 51.0202 468.005 51.2258 468.005C53.2487 467.577 55.3185 467.577 57.3412 468.005C58.506 467.863 59.6707 467.734 60.8408 467.604L60.847 467.603C61.9124 467.484 62.9822 467.365 64.0606 467.236C67.0504 466.941 70.3353 467.448 73.7967 467.983C77.7649 468.596 81.9653 469.245 86.2194 468.762C90.2996 468.279 94.7372 468.497 99.1026 468.712C104.148 468.96 109.097 469.204 113.285 468.355C116.878 467.627 120.917 467.989 124.71 468.329C129.167 468.728 133.284 469.098 135.935 467.631C136.011 467.721 150.317 468.491 152.016 467.993C156.487 467.33 161.02 467.59 165.418 468.762C169.656 468.838 173.887 468.322 178.026 467.223C178.784 466.957 180.095 467.082 181.489 467.215C182.939 467.354 184.478 467.5 185.575 467.223C186.196 466.675 187.847 466.94 189.635 467.227C191.98 467.602 194.56 468.016 195.353 466.68C195.89 466.861 196.43 467.054 196.974 467.247C199.835 468.265 202.783 469.314 205.696 468.889C206.011 468.937 206.151 468.873 206.31 468.802C206.455 468.736 206.616 468.663 206.941 468.663V466.763H207.319C207.642 467.654 208.133 468.444 208.754 469.07C211.056 468.437 216.568 467.487 218.116 469.07L218.159 469.059C218.494 468.969 218.679 468.92 218.789 468.863C218.923 468.792 218.947 468.709 219 468.525C219.029 468.424 219.066 468.294 219.134 468.12C219.703 468.298 220.207 468.696 220.569 469.251C223.205 469.283 225.838 468.827 228.461 468.371C232.363 467.695 236.244 467.021 240.085 467.964C240.973 468.103 241.949 468.029 242.863 467.96C243.737 467.893 244.554 467.831 245.181 467.964C247.522 468.608 249.916 468.927 252.316 468.914C254.108 468.742 255.818 469.228 257.482 469.7C259.744 470.342 261.919 470.96 264.094 469.865L264.138 469.842C264.424 469.695 264.539 469.637 264.585 469.575C264.615 469.534 264.616 469.492 264.617 469.421C264.618 469.326 264.62 469.179 264.698 468.914C264.698 468.914 271.267 470.136 272.06 469.865C272.456 469.729 272.862 469.604 273.268 469.48C273.673 469.356 274.079 469.231 274.475 469.096C279.684 469.548 285.083 470.091 289.952 470.996L311.733 470.688C312.952 470.726 314.171 470.773 315.39 470.819H315.394C318.44 470.934 321.485 471.05 324.531 471.05C326.204 470.625 327.923 470.503 329.627 470.688C333.067 471.336 336.532 471.774 340.008 472C341.242 471.557 342.505 471.239 343.783 471.05C351.013 472.032 358.304 472.229 365.565 471.638H371.868L374.51 470.507C375.416 470.634 376.313 470.752 377.206 470.869L377.21 470.87C378.214 471.001 379.212 471.132 380.211 471.276C380.782 471.306 381.29 471.333 381.742 471.357C384.437 471.5 385.151 471.538 385.611 471.471C385.777 471.446 385.91 471.409 386.091 471.357C386.642 471.2 387.639 470.917 391.37 470.507H401.563C409.609 469.286 408.743 469.87 408.216 470.226C407.766 470.53 407.562 470.667 413.349 469.375L417.804 469.918C421.197 470.175 424.602 470.175 427.996 469.918L434.074 471.276C437.763 472.013 441.097 471.08 443.955 470.281C445.658 469.805 447.192 469.375 448.532 469.375C449.111 469.375 449.593 469.597 450.108 469.835C450.866 470.185 451.697 470.568 453.023 470.326C453.582 470.21 453.993 469.812 454.367 469.449C454.726 469.102 455.051 468.787 455.439 468.787C456.13 468.529 456.996 468.826 457.879 469.128C459.167 469.569 460.493 470.022 461.366 468.787C465.402 470.443 470.797 470.119 476.047 469.803C478.115 469.679 480.16 469.556 482.091 469.556C484.36 469.483 486.707 469.389 489.11 469.292C497.142 468.969 505.798 468.62 514.252 468.968C515.457 468.562 516.736 468.111 518.015 467.66L518.028 467.656L523.728 468.606C524.615 468.659 525.241 468.057 525.768 467.551C526.138 467.195 526.458 466.887 526.786 466.887C528.861 467.332 530.817 468.372 532.485 469.918C533.354 469.808 534.441 469.807 535.587 469.806C538.677 469.804 542.202 469.801 543.055 467.656C543.972 467.216 545.162 467.735 546.435 468.291C546.996 468.536 547.574 468.788 548.151 468.968C550.807 468.86 553.498 468.741 556.199 468.622C559.14 468.492 562.093 468.362 565.026 468.244C566.384 468.606 567.593 468.968 568.801 469.375C569.358 469.331 569.897 469.112 570.361 468.738C570.825 468.365 571.198 467.851 571.443 467.249C574.871 468.625 576.328 468.519 577.652 468.423C579.113 468.316 580.412 468.222 584.016 470.145C584.447 469.962 584.908 469.749 585.376 469.533C586.301 469.105 587.253 468.666 588.055 468.425C588.66 469.918 589.868 469.918 591.529 469.918C592.461 468.659 593.031 467.072 593.152 465.393H593.34C596.18 468.556 599.852 470.429 603.722 470.688C605.476 468.707 607.732 467.485 610.132 467.215C612.532 466.944 614.939 467.641 616.972 469.194H617.16L617.316 469.093C618.612 468.256 619.294 467.815 619.803 466.117L623.578 468.063C625.035 467.609 626.405 466.826 627.617 465.755L631.693 467.475C632.87 467.59 633.663 467.233 634.499 466.856C635.299 466.496 636.139 466.117 637.394 466.117L639.621 467.837C640.945 467.739 642.234 467.291 643.396 466.525C644.65 466.613 645.248 467.028 645.919 467.494C646.278 467.744 646.658 468.008 647.171 468.244L651.436 466.344C652.144 466.838 652.279 466.72 652.479 466.544C652.664 466.381 652.905 466.17 653.701 466.344C654.657 466.552 655.375 466.857 656.003 467.124C657.559 467.786 658.562 468.213 661.252 466.344C661.61 466.68 662.117 466.87 662.65 467.069C663.407 467.352 664.215 467.655 664.724 468.425C666.613 468.662 668.52 468.27 670.236 467.294C671.417 467.684 672.566 468.199 673.671 468.832L678.956 467.475C680.689 468.379 682.607 468.647 684.468 468.244C684.666 468.159 684.774 468.003 684.886 467.842C685.071 467.575 685.266 467.294 685.901 467.294C686.922 467.43 688.179 467.571 689.54 467.724C692.257 468.028 695.391 468.38 697.906 468.832C698.925 469.013 707.456 467.294 707.456 467.294C710.035 468.879 711.79 468.567 713.781 468.213C715.2 467.96 716.739 467.686 718.781 468.063C721.524 468.774 724.318 469.153 727.124 469.194C728.096 469.113 729.075 468.856 730.056 468.6C731.246 468.288 732.437 467.977 733.617 467.977C736.681 468.305 739.768 468.122 742.79 467.434C743.586 467.237 743.946 467.581 744.249 467.87C744.435 468.047 744.599 468.203 744.828 468.203H745.847L746.413 467.343C746.96 467.179 748.739 467.359 750.629 467.55C752.913 467.78 755.362 468.027 756.002 467.705C758.046 466.682 763.269 468.14 767.419 469.299C770.246 470.088 772.575 470.738 773.065 470.372C775.309 469.198 777.756 468.686 780.199 468.878L779.596 467.521C778.58 467.68 777.553 467.68 776.538 467.521H776.123L775.933 465.982C776.087 465.986 776.254 465.988 776.429 465.99C778.658 466.018 782.329 466.064 780.614 468.833L780.992 469.24C782.701 469.435 784.415 469.87 786.126 470.305C789.481 471.157 792.825 472.006 796.092 471.029C797.748 471.612 799.5 471.689 801.188 471.256C802.373 471.105 803.729 471.307 805.104 471.511C807.451 471.861 809.856 472.218 811.569 470.849L812.362 471.799C816.612 470.493 821.006 469.989 825.385 470.305C826.163 470.342 826.936 470.408 827.704 470.474C828.837 470.571 829.961 470.667 831.085 470.667C833.396 469.841 835.823 469.579 838.22 469.898C838.304 469.77 838.378 469.648 838.449 469.531L838.45 469.529C838.831 468.905 839.111 468.445 840.032 468.179L840.447 469.898C841.801 469.357 843.005 468.771 844.209 468.185L844.222 468.179C844.601 468.922 844.76 468.987 845.445 469.267C845.51 469.294 845.581 469.323 845.657 469.355C846.25 469.159 846.555 468.91 846.872 468.65C847.14 468.431 847.417 468.205 847.884 467.998C847.884 468.038 847.876 468.083 847.863 468.132C847.852 468.18 847.836 468.23 847.819 468.282C847.703 468.653 847.567 469.089 848.715 468.948C849.572 468.842 849.981 468.599 850.412 468.342C850.721 468.158 851.041 467.968 851.546 467.817C851.513 467.19 851.499 466.563 851.504 465.935C851.739 466.031 851.967 466.151 852.188 466.295C852.707 466.138 853.198 465.879 853.643 465.53L853.584 465.933C854.583 465.53 855.605 465.213 856.642 464.983L856.695 464.797C856.996 464.897 857.293 465.013 857.586 465.147H858.001C857.321 465.373 856.642 465.588 855.962 465.803C855.283 466.018 854.603 466.233 853.924 466.459H853.508L853.735 468.586C854.686 468.459 854.717 468.49 855.238 469.01L855.358 469.129C856.109 469.048 856.876 468.828 857.622 468.614C859.391 468.107 861.042 467.633 862.077 469.129L862.682 469.536L862.87 467.59C863.028 467.647 863.211 467.714 863.404 467.784L863.414 467.788L863.416 467.789C864.137 468.052 864.979 468.36 865.098 468.36H865.513L864.908 466.64C863.927 466.278 863.739 466.369 863.097 467.228L861.662 466.821L860.228 464.197L861.662 464.74C861.957 464.554 862.257 465.018 862.562 465.491C862.862 465.955 863.166 466.426 863.475 466.295C863.593 464.494 864.157 462.776 865.098 461.363H865.324C865.397 461.431 865.462 461.49 865.52 461.544C865.889 461.88 866.018 461.997 866.343 462.856C866.721 463.852 866.155 464.847 865.098 465.164V465.526L867.929 464.377C868.291 464.146 868.617 464.456 868.895 464.721C869.18 464.993 869.416 465.218 869.589 464.757H870.194L871.817 464.377C870.228 465.515 868.366 465.977 866.533 465.69C866.658 466.083 866.768 466.335 866.857 466.541C867.036 466.952 867.136 467.184 867.136 467.998H867.324L869.589 467.59C869.529 467.453 869.487 467.35 869.456 467.272C869.382 467.088 869.363 467.043 869.279 467.007C869.247 466.993 869.204 466.981 869.146 466.962C869.06 466.936 868.938 466.896 868.759 466.821L869.174 466.459C869.941 466.761 870.639 467.272 871.212 467.952H872.232L872.647 467.409L871.402 466.278V465.509C871.78 465.271 872.201 465.147 872.628 465.147C873.056 465.147 873.476 465.271 873.855 465.509L873.883 465.431C874.307 464.227 875.135 461.876 876.686 461.3H879.556C880.258 460.89 880.32 460.64 880.381 460.392C880.448 460.121 880.515 459.852 881.422 459.379H882.064V461.28L881.179 461.3C881.002 461.936 881.129 462.066 881.425 462.366C881.572 462.515 881.759 462.705 881.972 463.02C879.984 462.555 879.366 463.415 878.708 464.329C878.342 464.839 877.963 465.366 877.328 465.69C877.53 465.858 877.733 465.957 877.93 466.053C878.211 466.189 878.482 466.321 878.725 466.64C879.183 466.536 879.604 466.268 879.933 465.871L880.349 466.64C882.51 466.728 884.672 467.118 886.832 467.507C890.18 468.11 893.522 468.712 896.845 468.19C896.973 468.212 897.1 468.236 897.228 468.262C897.492 468.317 897.755 468.381 898.018 468.445C898.706 468.612 899.39 468.779 900.089 468.779C903.387 468.124 906.756 468.124 910.053 468.779C909.645 468.96 911.867 470.317 912.507 470.317C912.756 470.157 912.978 469.938 913.156 469.674C913.324 469.409 913.458 469.105 913.529 468.779C918.871 467.355 924.373 467.034 929.796 467.829L931.236 469.548H932.027L931.422 468.009L931.609 467.466C933.961 467.654 935.975 467.687 937.809 467.717C942.157 467.787 945.498 467.841 949.956 469.91H950.942V469.548C950.749 469.463 950.555 469.379 950.36 469.294L950.358 469.293C949.408 468.879 948.446 468.46 947.502 468.009L947.093 467.466C947.173 467.455 947.257 467.451 947.339 467.453C947.394 467.454 947.449 467.459 947.502 467.466C949.227 468.102 951.067 468.102 952.791 467.466C953.049 467.676 953.262 467.96 953.404 468.291C953.547 468.623 953.627 468.993 953.618 469.367C954.604 468.96 954.604 468.371 954.604 467.059C958.373 467.421 965.093 467.647 969.698 467.647L974.8 467.059C977.298 467.495 979.822 467.692 982.347 467.647C985.342 466.799 988.436 466.6 991.485 467.059C991.947 466.887 992.373 466.564 992.693 466.125C993.022 465.686 993.244 465.148 993.333 464.57H993.52C994.028 465.074 994.012 465.279 993.97 465.814C993.956 465.999 993.938 466.225 993.938 466.516C996.453 466.992 999.013 466.853 1001.48 466.109C1003 466.696 1004.59 466.896 1006.17 466.697L1010.66 466.29C1012.22 466.928 1013.88 467.189 1015.53 467.059L1015.83 466.965L1016.14 466.87C1017.14 466.559 1018.21 466.228 1019.31 465.928C1021.58 465.819 1024.11 465.936 1026.8 466.059C1030.81 466.243 1035.15 466.443 1039.42 465.928C1040.23 465.836 1042.02 466.117 1043.66 466.375C1045.25 466.625 1046.7 466.853 1046.98 466.697C1047.18 466.583 1047.22 466.374 1047.26 466.164C1047.34 465.794 1047.41 465.421 1048.37 465.566C1049.68 465.762 1050.96 465.993 1052.27 466.228L1052.28 466.23L1052.86 466.335C1055.96 465.859 1059.1 465.783 1062.22 466.109C1066.2 465.756 1070.15 465.803 1073.95 465.848C1078.43 465.901 1082.73 465.952 1086.65 465.34C1087.24 465.252 1087.95 465.559 1088.65 465.861C1089.39 466.182 1090.12 466.498 1090.68 466.335C1093.4 465.882 1096.13 465.882 1098.84 466.335C1102.6 465.823 1106.38 465.566 1110.17 465.566C1115.35 466.582 1120.62 466.704 1125.83 465.928C1127.9 465.532 1130.11 465.813 1132.23 466.082C1133.98 466.305 1135.67 466.52 1137.16 466.335C1141.81 465.746 1146.8 465.685 1151.74 465.625C1157.43 465.556 1163.06 465.487 1168.07 464.616C1169.47 464.358 1171.31 464.55 1173.27 464.755C1176.14 465.054 1179.28 465.382 1181.74 464.389L1181.32 465.566L1184.57 464.616L1184.99 465.34C1186.55 465.341 1188.09 464.891 1189.48 464.027C1190.46 464.562 1191.41 465.198 1192.31 465.928C1194.23 465.147 1196.34 465.367 1198.43 465.585C1201.06 465.86 1203.65 466.13 1205.75 464.389C1205.88 464.533 1205.97 464.626 1206.02 464.721C1206.12 464.893 1206.12 465.069 1206.12 465.566C1210.72 464.75 1215.37 464.432 1220.02 464.616L1221.64 465.566C1222.71 465.704 1223.96 465.219 1225.14 464.758C1226.28 464.315 1227.35 463.895 1228.17 464.073C1228.25 464.142 1228.31 464.191 1228.36 464.231C1228.42 464.269 1228.45 464.299 1228.48 464.329C1228.59 464.432 1228.59 464.541 1228.59 465.023C1229.64 465.127 1230.68 465.449 1231.64 465.973H1232.25L1231.64 465.023V464.797C1234.78 465.724 1238.05 465.724 1241.19 464.797C1242.31 466.305 1245.34 466.289 1248.29 466.273C1249.95 466.265 1251.57 466.256 1252.82 466.516C1256.22 467.286 1259.18 466.839 1261.98 466.416C1265.43 465.894 1268.65 465.409 1272.15 467.282C1274.49 465.878 1277.38 465.041 1280 465.077V6.92267C1277.63 4.078 1273 4.31001 1268.55 4.53329C1265.7 4.67585 1262.93 4.81485 1260.86 4.14724C1259.64 4.07742 1258.41 4.64968 1257.19 5.22195C1256.04 5.76221 1254.88 6.30246 1253.73 6.30246L1251.31 3.6327C1250.4 3.23068 1249.26 3.33572 1248.12 3.44187C1246.94 3.55078 1245.75 3.66087 1244.78 3.22546C1244.52 3.11408 1244.37 2.84288 1244.21 2.56169C1243.99 2.15726 1243.76 1.73217 1243.16 1.73217C1241.72 1.44173 1240.3 1.78566 1238.95 2.11302C1237.77 2.39766 1236.64 2.66977 1235.61 2.50141C1234.97 3.2254 1234.36 3.99469 1233.76 4.76399C1233.2 4.70541 1232.78 4.41107 1232.32 4.09527C1231.71 3.67901 1231.06 3.22546 1229.98 3.22546C1229.43 3.22546 1229.28 3.48517 1229.15 3.70279C1229.06 3.85972 1228.98 3.99476 1228.77 3.99476C1226.75 4.42277 1224.68 4.42277 1222.66 3.99476C1221.49 4.13697 1220.33 4.26675 1219.15 4.39714C1218.09 4.51566 1217.02 4.63468 1215.94 4.76399C1212.95 5.05913 1209.66 4.5516 1206.2 4.01678C1202.24 3.40365 1198.03 2.75465 1193.78 3.23805C1189.7 3.72085 1185.26 3.50255 1180.9 3.28781C1175.85 3.03963 1170.9 2.79619 1166.71 3.64529C1163.12 4.37339 1159.08 4.01125 1155.29 3.6712C1150.83 3.27156 1146.72 2.90245 1144.06 4.36934C1143.99 4.27884 1129.68 3.50948 1127.98 4.00722C1123.51 4.66997 1118.98 4.40987 1114.58 3.23805C1110.34 3.1619 1106.11 3.6782 1101.97 4.77658C1101.22 5.04264 1099.9 4.9176 1098.51 4.78473C1097.06 4.64643 1095.52 4.49965 1094.42 4.77658C1093.8 5.32459 1092.15 5.05995 1090.37 4.77349C1088.02 4.39764 1085.44 3.98423 1084.65 5.31957C1084.11 5.13854 1083.57 4.94604 1083.02 4.75244C1080.16 3.73453 1077.22 2.68591 1074.3 3.11067C1073.99 3.06351 1073.85 3.12692 1073.69 3.19847C1073.54 3.26423 1073.38 3.33685 1073.06 3.33685V5.23751H1072.68C1072.36 4.34568 1071.87 3.55567 1071.25 2.92961C1068.94 3.56316 1063.43 4.51339 1061.88 2.92961C1061.52 3.02634 1061.33 3.07712 1061.21 3.13721C1061 3.24576 1061.06 3.38469 1060.87 3.87984C1060.3 3.70155 1059.79 3.30406 1059.43 2.74855C1056.79 2.7169 1054.16 3.17354 1051.54 3.62855C1047.64 4.30539 1043.76 4.97863 1039.91 4.03579C1039.03 3.89703 1038.05 3.97105 1037.14 4.04034C1036.26 4.10662 1035.45 4.16855 1034.82 4.03579C1032.48 3.39205 1030.08 3.07323 1027.68 3.08556C1025.89 3.25814 1024.18 2.77246 1022.52 2.30008C1020.26 1.65776 1018.08 1.04004 1015.91 2.1352C1015.59 2.29881 1015.46 2.3602 1015.42 2.42497C1015.34 2.52141 1015.44 2.62537 1015.3 3.08556C1015.3 3.08556 1008.73 1.86371 1007.94 2.1352C1007.54 2.27095 1007.14 2.3954 1006.73 2.51985C1006.33 2.6443 1005.92 2.76875 1005.53 2.9045C1000.32 2.45201 994.917 1.90896 990.048 1.00391L968.267 1.31235C967.048 1.27357 965.829 1.22739 964.61 1.18122C961.563 1.06579 958.516 0.950357 955.469 0.950357C953.795 1.37472 952.077 1.49662 950.373 1.31235C946.933 0.664325 943.468 0.226309 939.992 0C938.758 0.443177 937.495 0.761179 936.217 0.950357C928.987 -0.0317815 921.696 -0.2287 914.436 0.362119H908.132L905.49 1.49341C904.583 1.36547 903.684 1.24758 902.79 1.13027C901.786 0.998581 900.787 0.867635 899.789 0.724049C895.81 0.51582 894.926 0.450988 894.389 0.529386C893.717 0.627322 893.585 0.948771 888.63 1.49341H878.437C870.391 2.71431 871.257 2.13002 871.784 1.77409C872.234 1.47044 872.438 1.33301 866.651 2.62464L862.196 2.08165C858.803 1.82532 855.398 1.82532 852.004 2.08165L845.926 0.724051C842.237 -0.0130949 838.903 0.91953 836.045 1.71895C834.342 2.19546 832.808 2.62464 831.468 2.62464C830.889 2.62464 830.407 2.40261 829.892 2.16508C829.134 1.81528 828.303 1.43187 826.977 1.67441C826.418 1.78988 826.007 2.18827 825.633 2.55069C825.274 2.89836 824.949 3.21294 824.561 3.21294C823.87 3.47061 823.004 3.1744 822.121 2.87224C820.833 2.43144 819.507 1.97797 818.634 3.21294C814.598 1.55722 809.203 1.88128 803.953 2.19661C801.885 2.3208 799.84 2.44365 797.909 2.44365C795.64 2.5166 793.293 2.61116 790.889 2.70798C782.858 3.0315 774.202 3.3802 765.747 3.03188C764.543 3.43787 763.264 3.88879 761.985 4.33983L761.972 4.34424L756.272 3.39388C755.385 3.34074 754.759 3.94291 754.232 4.44913C753.862 4.80501 753.542 5.11347 753.214 5.11347C751.139 4.66765 749.183 3.62761 747.515 2.08165C746.646 2.19188 745.559 2.19274 744.413 2.19365C741.323 2.19609 737.798 2.19889 736.945 4.34424C736.028 4.78389 734.838 4.26467 733.565 3.70907C733.004 3.46404 732.426 3.21193 731.849 3.03189C729.191 3.14026 726.499 3.25901 723.797 3.37818C720.857 3.50785 717.905 3.63804 714.974 3.75593C713.616 3.39394 712.407 3.03195 711.199 2.62464C710.642 2.66857 710.103 2.88834 709.639 3.26184C709.175 3.63535 708.802 4.14927 708.557 4.75148C705.129 3.37466 703.672 3.4808 702.348 3.57722C700.887 3.68361 699.588 3.77817 695.984 1.85534C695.553 2.03779 695.092 2.25089 694.624 2.46719C693.699 2.89463 692.747 3.33453 691.945 3.57494C691.34 2.08159 690.132 2.08165 688.471 2.08165C687.539 3.34139 686.969 4.92838 686.848 6.60682H686.659C683.82 3.44423 680.148 1.57126 676.278 1.31236C674.523 3.29268 672.267 4.51485 669.867 4.78534C667.467 5.05576 665.061 4.35915 663.028 2.8057H662.84L662.683 2.90703C661.388 3.74373 660.706 4.18514 660.197 5.88277L656.422 3.937C654.965 4.39087 653.595 5.17408 652.383 6.2447L648.307 4.52517C647.13 4.40954 646.337 4.76671 645.501 5.1436C644.701 5.50416 643.861 5.88277 642.606 5.88277L640.379 4.16318C639.055 4.26129 637.766 4.7095 636.604 5.47553C635.35 5.38708 634.752 4.97205 634.081 4.5058C633.722 4.25645 633.342 3.99246 632.829 3.75594L628.563 5.65646C627.856 5.16187 627.721 5.28017 627.521 5.45632C627.336 5.61863 627.095 5.83005 626.299 5.65646C625.343 5.44826 624.625 5.14276 623.997 4.87555C622.441 4.21354 621.438 3.78657 618.748 5.65646C618.39 5.3199 617.883 5.13014 617.35 4.93075C616.593 4.64758 615.785 4.345 615.276 3.57494C613.387 3.33831 611.48 3.72969 609.764 4.70617C608.583 4.31623 607.434 3.80138 606.329 3.16764L601.044 4.52517C599.311 3.62057 597.393 3.35291 595.532 3.75594C595.334 3.8411 595.226 3.99678 595.114 4.15783C594.929 4.42464 594.734 4.70617 594.099 4.70617C593.078 4.57021 591.821 4.4292 590.46 4.27641C587.743 3.97156 584.609 3.61981 582.094 3.16764C581.075 2.98664 572.544 4.70617 572.544 4.70617C569.965 3.12089 568.21 3.43316 566.219 3.78739C564.8 4.03984 563.261 4.3136 561.219 3.937C558.476 3.22572 555.682 2.84674 552.876 2.80571C551.904 2.88746 550.925 3.14374 549.944 3.40021C548.754 3.71157 547.563 4.02322 546.383 4.02322C543.319 3.69477 540.232 3.87765 537.21 4.56633C536.414 4.76285 536.054 4.41938 535.751 4.13032C535.565 3.95346 535.401 3.79697 535.171 3.79697H534.153L533.587 4.65677C533.04 4.82073 531.261 4.64127 529.371 4.45046C527.087 4.21993 524.638 3.97284 523.998 4.29471C521.954 5.31763 516.731 3.85966 512.58 2.701C509.754 1.91196 507.424 1.26173 506.935 1.62835C504.691 2.80225 502.244 3.3144 499.801 3.12176L500.404 4.47923C501.42 4.31995 502.447 4.31995 503.462 4.47923H503.877L504.067 6.01777C503.912 6.01447 503.746 6.01237 503.571 6.01016C501.341 5.98207 497.671 5.93582 499.386 3.16688L499.008 2.75964C497.299 2.56492 495.585 2.12957 493.874 1.69506C490.519 0.842657 487.175 -0.00649995 483.908 0.970632C482.251 0.388434 480.499 0.310586 478.812 0.744261C477.627 0.89472 476.271 0.693102 474.896 0.488565C472.549 0.13949 470.144 -0.218086 468.431 1.1515L467.638 0.201271C463.388 1.50676 458.994 2.01067 454.615 1.69462C453.837 1.65803 453.064 1.59184 452.296 1.52597C451.163 1.42892 450.039 1.33256 448.915 1.33256C446.604 2.15919 444.177 2.42087 441.78 2.10192C441.696 2.23062 441.621 2.35367 441.55 2.47089C441.169 3.09554 440.889 3.55476 439.968 3.82145L439.553 2.10192C438.199 2.64278 436.995 3.229 435.791 3.81495L435.778 3.82145C435.399 3.07836 435.24 3.01317 434.556 2.73255C434.49 2.70559 434.419 2.67664 434.343 2.64491C433.75 2.84112 433.445 3.09049 433.128 3.34981C432.86 3.56892 432.583 3.79513 432.116 4.00239C432.116 3.92254 432.148 3.82289 432.18 3.71799C432.297 3.34729 432.433 2.91108 431.285 3.05216C430.428 3.15759 430.019 3.40122 429.587 3.65784C429.279 3.84173 428.958 4.0323 428.454 4.18345C428.487 4.80982 428.501 5.43727 428.496 6.06459C428.261 5.96906 428.033 5.84892 427.812 5.70461C427.293 5.86157 426.802 6.12092 426.357 6.46994L426.416 6.0666C425.417 6.46969 424.395 6.78719 423.358 7.01684L423.305 7.20255C423.004 7.10324 422.707 6.98675 422.414 6.85321H421.999C422.679 6.62696 423.358 6.41201 424.038 6.19707C424.717 5.98212 425.397 5.76717 426.076 5.54092H426.491L426.265 3.41409C425.314 3.54076 425.283 3.50983 424.762 2.99042C424.725 2.9532 424.685 2.91346 424.642 2.8711C423.891 2.95166 423.124 3.17171 422.378 3.38577C420.609 3.89307 418.958 4.36679 417.923 2.8711L417.318 2.46386L417.13 4.40963C416.968 4.35143 416.78 4.28283 416.583 4.21097C415.862 3.94761 415.021 3.6404 414.902 3.6404H414.487L415.092 5.35999C416.073 5.72204 416.261 5.63148 416.903 4.77169L418.338 5.17893L419.772 7.8035L418.338 7.26051C418.043 7.44652 417.743 6.98154 417.438 6.50904C417.138 6.04505 416.834 5.57381 416.525 5.70461C416.407 7.50614 415.843 9.22404 414.902 10.637H414.676C414.603 10.5688 414.539 10.5099 414.48 10.4565C414.111 10.1205 413.982 10.0027 413.657 9.14367C413.279 8.14813 413.845 7.15265 414.902 6.8359V6.47385L412.071 7.62257C411.709 7.8544 411.383 7.54415 411.105 7.27919C410.82 7.00691 410.584 6.78245 410.411 7.24314H409.806L408.183 7.62257C409.772 6.48543 411.634 6.02305 413.468 6.31022C413.342 5.91709 413.232 5.66542 413.143 5.459C412.964 5.04764 412.864 4.81593 412.864 4.00239H412.676L410.411 4.40963C410.615 4.87186 410.601 4.94199 410.721 4.99307C410.801 5.027 410.94 5.05252 411.241 5.17893L410.826 5.54092C410.059 5.23916 409.361 4.72801 408.788 4.0477H407.768L407.353 4.59069L408.598 5.72198V6.49128C408.22 6.72911 407.799 6.8534 407.372 6.8534C406.944 6.8534 406.524 6.72911 406.145 6.49128L406.117 6.56951C405.693 7.77287 404.865 10.1241 403.314 10.6996H400.444C399.742 11.1099 399.68 11.36 399.619 11.6078C399.552 11.8793 399.485 12.1479 398.578 12.6211H397.936V10.7205L398.821 10.6996C398.998 10.0639 398.871 9.93445 398.575 9.63386C398.428 9.48515 398.241 9.29456 398.028 8.98004C400.016 9.44495 400.634 8.58524 401.292 7.6707C401.658 7.16094 402.037 6.63414 402.672 6.31022C402.47 6.14217 402.267 6.04348 402.07 5.94736C401.789 5.81055 401.518 5.67895 401.275 5.35999C400.817 5.46383 400.396 5.73205 400.067 6.12922L399.652 5.35999C397.49 5.27153 395.328 4.88203 393.168 4.49298C389.82 3.88999 386.478 3.28807 383.156 3.80956C382.761 3.74423 382.371 3.64941 381.982 3.5549C381.294 3.38759 380.61 3.22126 379.911 3.22126C376.613 3.87621 373.244 3.87621 369.947 3.22126C370.356 3.04026 368.133 1.68273 367.493 1.68273C367.244 1.84289 367.022 2.0619 366.844 2.32641C366.675 2.59092 366.542 2.89533 366.471 3.22126C361.129 4.64475 355.627 4.96603 350.204 4.17149L348.764 2.45209H347.973L348.578 3.99062L348.391 4.53361C346.039 4.34565 344.025 4.31303 342.191 4.28331C337.843 4.21285 334.502 4.15872 330.044 2.08997H329.058V2.45209C329.251 2.53663 329.445 2.62118 329.64 2.70594C330.59 3.12022 331.553 3.53981 332.498 3.99062L332.907 4.53361C332.773 4.5523 332.631 4.5523 332.498 4.53361C330.773 3.89849 328.933 3.89849 327.209 4.53361C326.951 4.32392 326.738 4.04047 326.596 3.70874C326.453 3.37702 326.373 3.00741 326.382 2.63296C325.396 3.0402 325.395 3.62876 325.395 4.94085C321.627 4.57886 314.907 4.35255 310.302 4.35255L305.2 4.94085C302.702 4.50479 300.178 4.308 297.653 4.35255C294.658 5.20083 291.564 5.40008 288.515 4.94085C288.053 5.11323 287.627 5.43639 287.307 5.87523C286.978 6.31406 286.756 6.85164 286.667 7.42962H286.48C285.972 6.92566 285.988 6.72107 286.03 6.18616C286.044 6.00058 286.062 5.77524 286.062 5.48384C283.547 5.00807 280.987 5.14658 278.515 5.89109C277.004 5.30423 275.413 5.10379 273.831 5.30279L269.342 5.71022C267.778 5.07239 266.124 4.81096 264.471 4.94086C264.27 5.00285 264.066 5.06618 263.859 5.13038C262.858 5.44104 261.791 5.77215 260.693 6.07215C258.423 6.18099 255.886 6.06437 253.202 5.94098C249.19 5.75658 244.849 5.55705 240.578 6.07215C239.77 6.164 237.983 5.88293 236.344 5.62517C234.754 5.37499 233.302 5.14678 233.022 5.30279C232.82 5.41723 232.779 5.62618 232.738 5.83575C232.665 6.20621 232.592 6.57858 231.627 6.43408C230.314 6.23694 229.028 6.00554 227.717 5.76964L227.653 5.75824L227.138 5.6649C224.036 6.14087 220.898 6.21664 217.778 5.89109C213.796 6.24377 209.854 6.19701 206.054 6.15194C201.565 6.09869 197.274 6.0478 193.351 6.66045C192.764 6.74834 192.053 6.44142 191.352 6.13868C190.61 5.81798 189.878 5.50197 189.316 5.66491C186.604 6.11759 183.867 6.11759 181.156 5.66491C177.396 6.17731 173.618 6.43402 169.831 6.43408C164.649 5.41783 159.378 5.29599 154.169 6.07215C152.101 6.46835 149.888 6.18697 147.769 5.91772C146.017 5.69496 144.329 5.4805 142.844 5.66491C138.19 6.25417 133.202 6.31491 128.257 6.37514C122.569 6.44442 116.936 6.51302 111.929 7.38444C110.529 7.64226 108.693 7.45043 106.728 7.24506C103.864 6.94576 100.725 6.6177 98.2578 7.61068L98.6756 6.43408L95.4311 7.38444L95.0133 6.66045C93.4489 6.65926 91.9111 7.10942 90.5244 7.97274C89.5377 7.43787 88.5867 6.80193 87.6889 6.07215C85.7689 6.85327 83.6557 6.63263 81.5688 6.41473C78.9408 6.14035 76.3545 5.87026 74.2489 7.61062Z" fill="#294F4A"/>
</svg>
