<svg width="1462" height="666" viewBox="0 0 1462 666" fill="none" xmlns="http://www.w3.org/2000/svg">
<path d="M84.8277 10.7387C84.4013 10.1641 84.4013 10.164 84.4013 9.0786C79.1525 10.2299 73.8428 10.6787 68.5331 10.4195L66.6853 9.0786C65.4525 8.88313 64.0292 9.56872 62.6788 10.2193C61.3825 10.8438 60.1531 11.436 59.2234 11.1859C59.1324 11.0885 59.0588 11.019 58.9992 10.9627C58.7461 10.7236 58.7461 10.7236 58.7461 9.84494C57.538 9.69788 56.3603 9.24421 55.2537 8.50397H54.5633L55.2537 9.84494V10.1642C51.6699 8.855 47.9338 8.855 44.35 10.1642C43.0748 8.03653 39.6067 8.05889 36.238 8.08061C34.3497 8.09279 32.4927 8.10476 31.0706 7.7378C27.1865 6.65089 23.8057 7.28196 20.605 7.87941C16.661 8.61562 12.9905 9.30078 8.98897 6.65729C6.31889 8.63842 3.01938 9.81901 0.0244141 9.76805L0.0244886 656.232C2.73584 660.246 8.02066 659.919 13.1066 659.604C16.354 659.402 19.5202 659.206 21.8839 660.148C23.2811 660.247 24.6784 659.44 26.0756 658.631C27.3947 657.87 28.7137 657.107 30.0328 657.107L32.7921 660.874C33.8348 661.442 35.1296 661.293 36.438 661.143C37.7806 660.99 39.1375 660.834 40.2511 661.449C40.5517 661.606 40.7218 661.989 40.8981 662.386C41.1517 662.956 41.4183 663.556 42.1051 663.556C43.7424 663.965 45.3675 663.48 46.9143 663.018C48.2593 662.617 49.545 662.233 50.7281 662.47C51.461 661.449 52.151 660.363 52.8409 659.278C53.4731 659.36 53.9612 659.776 54.4846 660.221C55.1747 660.809 55.9265 661.449 57.1523 661.449C57.7785 661.449 57.9536 661.082 58.1003 660.776C58.2061 660.554 58.2971 660.363 58.532 660.363C60.8424 659.759 63.2064 659.759 65.5167 660.363C66.847 660.163 68.1773 659.981 69.5137 659.797L69.5208 659.796C70.7376 659.628 71.9595 659.461 73.1912 659.278C76.6061 658.862 80.3578 659.578 84.3113 660.332C88.8435 661.197 93.641 662.113 98.4999 661.431C103.16 660.75 108.228 661.058 113.214 661.36C118.976 661.711 124.629 662.055 129.413 660.857C133.516 659.829 138.129 660.34 142.461 660.82C147.553 661.384 152.254 661.904 155.283 659.834C155.369 659.962 171.709 661.048 173.649 660.346C178.756 659.411 183.933 659.778 188.956 661.431C193.797 661.539 198.629 660.81 203.356 659.26C204.222 658.885 205.72 659.061 207.312 659.249C208.968 659.444 210.726 659.651 211.979 659.26C212.688 658.487 214.574 658.861 216.616 659.265C219.295 659.795 222.241 660.379 223.147 658.494C223.76 658.749 224.377 659.021 224.998 659.294C228.265 660.73 231.633 662.21 234.96 661.611C235.319 661.677 235.48 661.588 235.66 661.487C235.827 661.394 236.011 661.291 236.382 661.291V658.61H236.814C237.182 659.868 237.744 660.983 238.452 661.866C241.082 660.972 247.377 659.631 249.145 661.866L249.195 661.85C249.577 661.724 249.788 661.655 249.913 661.574C250.067 661.474 250.094 661.356 250.155 661.096C250.188 660.955 250.23 660.771 250.308 660.526C250.958 660.777 251.534 661.338 251.947 662.122C254.958 662.166 257.964 661.522 260.96 660.88C265.417 659.925 269.85 658.976 274.238 660.305C275.252 660.501 276.367 660.397 277.41 660.299C278.408 660.206 279.341 660.118 280.058 660.305C282.731 661.214 285.465 661.664 288.207 661.647C290.254 661.403 292.208 662.088 294.107 662.754C296.691 663.661 299.175 664.533 301.659 662.987L301.71 662.955C302.036 662.748 302.167 662.665 302.22 662.579C302.254 662.521 302.255 662.461 302.256 662.361C302.257 662.226 302.259 662.019 302.349 661.647C302.349 661.647 309.851 663.37 310.757 662.987C311.21 662.796 311.673 662.62 312.137 662.445C312.6 662.269 313.064 662.093 313.515 661.901C319.466 662.54 325.631 663.307 331.193 664.584L356.07 664.148C357.462 664.203 358.855 664.268 360.247 664.333L360.251 664.334C363.73 664.496 367.209 664.659 370.687 664.659C372.599 664.06 374.561 663.888 376.507 664.148C380.436 665.063 384.394 665.681 388.364 666C389.773 665.375 391.216 664.926 392.676 664.659C400.934 666.045 409.261 666.323 417.554 665.489H424.754L427.771 663.892C428.806 664.073 429.83 664.239 430.849 664.404L430.854 664.405C432.002 664.591 433.142 664.776 434.282 664.979C434.935 665.02 435.514 665.059 436.031 665.092C439.109 665.294 439.925 665.348 440.449 665.253C440.639 665.219 440.792 665.165 440.998 665.092C441.627 664.871 442.766 664.471 447.027 663.892H458.669C467.859 662.171 466.87 662.995 466.268 663.496C465.753 663.925 465.521 664.119 472.131 662.296L477.218 663.063C481.095 663.424 484.983 663.424 488.859 663.063L495.802 664.979C500.016 666.018 503.823 664.703 507.087 663.575C509.032 662.903 510.784 662.296 512.314 662.296C512.976 662.296 513.527 662.61 514.115 662.945C514.98 663.439 515.93 663.98 517.444 663.638C518.083 663.474 518.552 662.913 518.979 662.401C519.39 661.911 519.76 661.467 520.204 661.467C520.993 661.103 521.982 661.521 522.991 661.947C524.462 662.569 525.976 663.209 526.974 661.467C531.583 663.803 537.745 663.345 543.741 662.9C546.103 662.725 548.439 662.552 550.644 662.552C553.236 662.449 555.917 662.316 558.661 662.179C567.834 661.723 577.721 661.23 587.378 661.722C588.753 661.149 590.214 660.513 591.675 659.876L591.689 659.87L598.2 661.211C599.213 661.286 599.928 660.436 600.529 659.722C600.952 659.22 601.319 658.785 601.692 658.785C604.063 659.414 606.297 660.881 608.202 663.063C609.194 662.908 610.436 662.906 611.744 662.904C615.274 662.901 619.3 662.897 620.274 659.87C621.322 659.25 622.681 659.983 624.134 660.766C624.776 661.113 625.435 661.468 626.095 661.722C629.128 661.569 632.203 661.402 635.287 661.233C638.646 661.051 642.019 660.867 645.368 660.7C646.92 661.211 648.3 661.722 649.68 662.296C650.317 662.234 650.932 661.925 651.462 661.398C651.992 660.87 652.418 660.145 652.697 659.295C656.612 661.238 658.277 661.088 659.79 660.952C661.459 660.802 662.941 660.669 667.058 663.382C667.55 663.125 668.077 662.824 668.611 662.519C669.668 661.916 670.755 661.295 671.671 660.956C672.362 663.063 673.741 663.063 675.639 663.063C676.704 661.285 677.355 659.046 677.493 656.678H677.708C680.951 661.14 685.145 663.783 689.565 664.148C691.569 661.354 694.146 659.629 696.887 659.248C699.628 658.866 702.376 659.85 704.698 662.042H704.913L705.092 661.898C706.571 660.718 707.351 660.094 707.932 657.699L712.243 660.445C713.907 659.804 715.473 658.699 716.857 657.189L721.513 659.615C722.857 659.779 723.762 659.274 724.717 658.742C725.63 658.233 726.59 657.699 728.023 657.699L730.568 660.126C732.079 659.988 733.551 659.355 734.878 658.274C736.311 658.399 736.993 658.985 737.76 659.643C738.17 659.994 738.604 660.366 739.19 660.7L744.062 658.018C744.87 658.717 745.024 658.549 745.253 658.301C745.464 658.072 745.739 657.773 746.649 658.018C747.74 658.313 748.56 658.743 749.277 659.121C751.054 660.055 752.2 660.657 755.272 658.018C755.683 658.493 756.261 658.761 756.869 659.042C757.733 659.443 758.657 659.869 759.239 660.956C761.396 661.289 763.574 660.737 765.534 659.359C766.883 659.91 768.195 660.636 769.457 661.531L775.493 659.615C777.473 660.891 779.664 661.269 781.789 660.7C782.016 660.581 782.139 660.36 782.267 660.133C782.478 659.757 782.7 659.359 783.426 659.359C784.592 659.551 786.027 659.75 787.583 659.966C790.685 660.396 794.265 660.892 797.137 661.531C798.302 661.786 808.045 659.359 808.045 659.359C810.99 661.597 812.995 661.155 815.269 660.656C816.89 660.299 818.648 659.914 820.98 660.445C824.112 661.449 827.304 661.984 830.508 662.042C831.618 661.926 832.738 661.564 833.856 661.202C835.216 660.763 836.576 660.323 837.924 660.323C841.424 660.787 844.95 660.529 848.402 659.557C849.31 659.279 849.722 659.764 850.069 660.172C850.28 660.421 850.468 660.643 850.73 660.643H851.893L852.54 659.429C853.164 659.198 855.196 659.451 857.355 659.721C859.964 660.046 862.76 660.394 863.491 659.94C865.825 658.496 871.791 660.554 876.532 662.189C879.761 663.302 882.421 664.219 882.98 663.703C885.543 662.046 888.337 661.324 891.128 661.595L890.439 659.68C889.28 659.904 888.106 659.904 886.947 659.68H886.472L886.256 657.508C886.432 657.514 886.623 657.517 886.823 657.52C889.369 657.559 893.561 657.624 891.602 661.532L892.034 662.107C893.986 662.381 895.944 662.995 897.897 663.608C901.731 664.811 905.549 666.009 909.28 664.63C911.172 665.452 913.173 665.561 915.1 664.95C916.455 664.738 918.003 665.022 919.573 665.311C922.255 665.803 925 666.308 926.957 664.376L927.863 665.716C932.717 663.874 937.736 663.163 942.737 663.609C943.627 663.661 944.509 663.754 945.386 663.847C946.679 663.984 947.964 664.12 949.248 664.12C951.888 662.953 954.659 662.584 957.397 663.034C957.492 662.854 957.577 662.68 957.658 662.516L957.659 662.514C958.095 661.632 958.414 660.985 959.466 660.608L959.941 663.034C961.487 662.271 962.862 661.444 964.237 660.617L964.252 660.608C964.685 661.657 964.867 661.748 965.648 662.144C965.723 662.183 965.804 662.223 965.891 662.268C966.568 661.991 966.916 661.64 967.279 661.273C967.585 660.964 967.901 660.645 968.434 660.352C968.434 660.409 968.425 660.474 968.411 660.542C968.398 660.609 968.379 660.681 968.361 660.754C968.228 661.277 968.072 661.892 969.383 661.693C970.363 661.545 970.83 661.201 971.322 660.839C971.676 660.58 972.041 660.311 972.617 660.097C972.579 659.213 972.563 658.328 972.569 657.443C972.837 657.578 973.098 657.747 973.35 657.951C973.943 657.729 974.504 657.363 975.012 656.871L974.945 657.44C976.086 656.871 977.253 656.423 978.437 656.099L978.498 655.837C978.842 655.977 979.181 656.142 979.515 656.33H979.99C979.213 656.65 978.437 656.952 977.662 657.256C976.885 657.559 976.108 657.863 975.333 658.182H974.859L975.117 661.183C976.203 661.004 976.238 661.048 976.834 661.781L976.971 661.949C977.828 661.835 978.704 661.525 979.557 661.222C981.577 660.507 983.463 659.839 984.645 661.949L985.336 662.524L985.551 659.778C985.732 659.858 985.941 659.952 986.16 660.052L986.172 660.057L986.174 660.058C986.998 660.429 987.959 660.863 988.095 660.863H988.569L987.879 658.437C986.758 657.926 986.543 658.054 985.81 659.267L984.171 658.692L982.533 654.99L984.171 655.755C984.508 655.493 984.851 656.149 985.2 656.816C985.542 657.47 985.889 658.135 986.241 657.951C986.376 655.409 987.021 652.985 988.095 650.991H988.354C988.437 651.087 988.511 651.17 988.578 651.245C988.999 651.72 989.146 651.886 989.518 653.098C989.949 654.503 989.302 655.907 988.095 656.354V656.866L991.329 655.245C991.742 654.918 992.115 655.355 992.431 655.729C992.758 656.114 993.027 656.43 993.225 655.78H993.916L995.77 655.245C993.955 656.849 991.828 657.501 989.734 657.096C989.878 657.651 990.002 658.006 990.104 658.297C990.309 658.878 990.423 659.205 990.423 660.352H990.638L993.225 659.778C993.156 659.584 993.109 659.44 993.073 659.329C992.988 659.069 992.967 659.005 992.871 658.955C992.833 658.935 992.786 658.918 992.719 658.892C992.62 658.854 992.481 658.799 992.277 658.692L992.751 658.182C993.627 658.608 994.424 659.329 995.079 660.288H996.244L996.718 659.523L995.295 657.926V656.841C995.728 656.505 996.208 656.33 996.696 656.33C997.185 656.33 997.665 656.505 998.097 656.841L998.129 656.731C998.613 655.032 999.559 651.715 1001.33 650.902H1004.61C1005.41 650.324 1005.48 649.971 1005.55 649.621C1005.63 649.238 1005.7 648.86 1006.74 648.192H1007.47V650.873L1006.46 650.902C1006.26 651.8 1006.41 651.983 1006.74 652.407C1006.91 652.616 1007.13 652.885 1007.37 653.329C1005.1 652.673 1004.39 653.886 1003.64 655.176C1003.22 655.896 1002.79 656.639 1002.06 657.096C1002.3 657.333 1002.53 657.473 1002.75 657.608C1003.07 657.801 1003.38 657.987 1003.66 658.437C1004.18 658.29 1004.66 657.912 1005.04 657.351L1005.51 658.437C1007.98 658.561 1010.45 659.112 1012.92 659.661C1016.74 660.512 1020.56 661.36 1024.35 660.624C1024.5 660.655 1024.65 660.689 1024.79 660.726C1025.1 660.804 1025.39 660.894 1025.69 660.984C1026.48 661.22 1027.26 661.455 1028.06 661.455C1031.83 660.531 1035.67 660.531 1039.44 661.455C1038.97 661.711 1041.51 663.625 1042.24 663.625C1042.53 663.4 1042.78 663.09 1042.98 662.718C1043.18 662.344 1043.33 661.915 1043.41 661.455C1049.51 659.447 1055.8 658.993 1061.99 660.114L1063.63 662.54H1064.54L1063.85 660.369L1064.06 659.603C1066.75 659.868 1069.05 659.915 1071.15 659.956C1076.11 660.056 1079.93 660.132 1085.02 663.051H1086.14V662.54C1085.92 662.421 1085.7 662.301 1085.48 662.182L1085.47 662.181C1084.39 661.596 1083.29 661.005 1082.21 660.369L1081.75 659.603C1081.84 659.587 1081.93 659.581 1082.03 659.584C1082.09 659.587 1082.15 659.593 1082.21 659.603C1084.18 660.499 1086.28 660.499 1088.25 659.603C1088.55 659.899 1088.79 660.298 1088.95 660.767C1089.12 661.235 1089.21 661.756 1089.2 662.285C1090.33 661.711 1090.33 660.88 1090.33 659.028C1094.63 659.539 1102.31 659.859 1107.56 659.859L1113.39 659.028C1116.24 659.644 1119.13 659.922 1122.01 659.859C1125.43 658.662 1128.97 658.381 1132.45 659.028C1132.98 658.786 1133.46 658.329 1133.83 657.709C1134.2 657.091 1134.46 656.332 1134.56 655.517H1134.77C1135.35 656.228 1135.33 656.517 1135.29 657.271C1135.27 657.533 1135.25 657.851 1135.25 658.262C1138.12 658.934 1141.05 658.738 1143.87 657.687C1145.6 658.516 1147.41 658.799 1149.22 658.518L1154.35 657.943C1156.13 658.843 1158.02 659.212 1159.91 659.028L1160.26 658.895L1160.61 658.761C1161.75 658.323 1162.97 657.856 1164.22 657.432C1166.81 657.279 1169.72 657.443 1172.78 657.617C1177.36 657.877 1182.33 658.159 1187.2 657.432C1188.12 657.302 1190.16 657.699 1192.03 658.063C1193.85 658.416 1195.5 658.738 1195.83 658.518C1196.06 658.356 1196.1 658.062 1196.15 657.765C1196.24 657.242 1196.32 656.718 1197.42 656.922C1198.92 657.199 1200.38 657.524 1201.87 657.855L1201.88 657.858L1202.55 658.007C1206.09 657.335 1209.68 657.228 1213.24 657.687C1217.79 657.19 1222.29 657.256 1226.63 657.32C1231.76 657.395 1236.66 657.467 1241.14 656.602C1241.81 656.478 1242.62 656.912 1243.42 657.338C1244.27 657.791 1245.11 658.236 1245.75 658.007C1248.85 657.368 1251.97 657.368 1255.07 658.007C1259.36 657.284 1263.68 656.922 1268 656.922C1273.92 658.355 1279.94 658.528 1285.89 657.432C1288.26 656.873 1290.79 657.27 1293.2 657.65C1295.2 657.964 1297.13 658.267 1298.83 658.007C1304.15 657.175 1309.84 657.089 1315.49 657.005C1321.98 656.906 1328.42 656.81 1334.14 655.581C1335.73 655.217 1337.83 655.487 1340.08 655.778C1343.34 656.2 1346.93 656.663 1349.75 655.261L1349.27 656.922L1352.98 655.581L1353.46 656.602C1355.24 656.604 1357 655.968 1358.58 654.75C1359.71 655.505 1360.8 656.403 1361.82 657.432C1364.01 656.33 1366.43 656.641 1368.82 656.949C1371.81 657.336 1374.77 657.717 1377.17 655.261C1377.32 655.465 1377.42 655.596 1377.49 655.729C1377.6 655.971 1377.6 656.219 1377.6 656.922C1382.85 655.77 1388.16 655.322 1393.47 655.581L1395.31 656.922C1396.54 657.117 1397.97 656.431 1399.32 655.781C1400.61 655.156 1401.84 654.564 1402.78 654.814C1402.87 654.911 1402.94 654.982 1403 655.037C1403.06 655.091 1403.1 655.134 1403.13 655.176C1403.25 655.322 1403.25 655.476 1403.25 656.155C1404.46 656.302 1405.64 656.756 1406.75 657.496H1407.44L1406.75 656.155V655.836C1410.33 657.145 1414.07 657.145 1417.65 655.836C1418.93 657.963 1422.39 657.941 1425.76 657.92C1427.65 657.907 1429.51 657.895 1430.93 658.262C1434.82 659.349 1438.2 658.718 1441.4 658.121C1445.34 657.385 1449.01 656.699 1453.01 659.343C1455.68 657.361 1458.98 656.181 1461.98 656.232V9.76801C1459.26 5.75413 1453.98 6.0815 1448.89 6.39655C1445.65 6.5977 1442.48 6.79384 1440.12 5.85183C1438.72 5.75331 1437.33 6.56078 1435.92 7.36826C1434.6 8.13057 1433.28 8.89288 1431.96 8.89288L1429.2 5.1258C1428.17 4.55854 1426.87 4.70675 1425.56 4.85653C1424.22 5.01022 1422.86 5.16554 1421.75 4.55118C1421.45 4.39403 1421.27 4.01135 1421.1 3.61458C1420.85 3.04393 1420.58 2.44413 1419.89 2.44413C1418.26 2.03431 1416.63 2.51959 1415.08 2.9815C1413.74 3.38314 1412.45 3.76709 1411.27 3.52953C1410.54 4.55108 1409.85 5.63658 1409.16 6.72207C1408.52 6.63941 1408.04 6.22409 1407.52 5.7785C1406.83 5.19113 1406.08 4.55118 1404.85 4.55118C1404.22 4.55118 1404.05 4.91763 1403.9 5.2247C1403.79 5.44612 1403.7 5.63666 1403.47 5.63666C1401.16 6.2406 1398.8 6.2406 1396.48 5.63667C1395.15 5.83734 1393.82 6.02046 1392.48 6.20443C1391.26 6.37167 1390.05 6.53961 1388.81 6.72207C1385.4 7.13851 1381.64 6.42238 1377.69 5.66774C1373.15 4.80261 1368.36 3.88686 1363.5 4.56893C1358.84 5.25018 1353.77 4.94217 1348.79 4.63916C1343.02 4.28897 1337.37 3.94547 1332.58 5.14356C1328.48 6.17093 1323.87 5.65993 1319.54 5.18012C1314.45 4.61623 1309.75 4.0954 1306.71 6.16521C1306.63 6.03751 1290.29 4.95193 1288.35 5.65425C1283.24 6.58941 1278.06 6.2224 1273.04 4.56894C1268.21 4.46149 1263.37 5.19001 1258.64 6.73984C1257.78 7.11526 1256.28 6.93882 1254.69 6.75133C1253.03 6.55619 1251.27 6.34909 1250.02 6.73984C1249.31 7.51309 1247.42 7.13967 1245.38 6.73547C1242.7 6.20514 1239.76 5.62181 1238.86 7.506C1238.24 7.25057 1237.62 6.97895 1237 6.70578C1233.73 5.26948 1230.37 3.78986 1227.04 4.38921C1226.68 4.32266 1226.52 4.41214 1226.34 4.51309C1226.18 4.60588 1225.99 4.70836 1225.62 4.70836V7.39021H1225.19C1224.81 6.13182 1224.26 5.01711 1223.55 4.13373C1220.92 5.02768 1214.62 6.36847 1212.86 4.13373C1212.44 4.27023 1212.22 4.34187 1212.08 4.42666C1211.85 4.57983 1211.91 4.77585 1211.69 5.47453C1211.04 5.22295 1210.47 4.66209 1210.05 3.87825C1207.04 3.83359 1204.03 4.47792 1201.04 5.11995C1196.58 6.07498 1192.15 7.02493 1187.76 5.69457C1186.75 5.49877 1185.64 5.60322 1184.59 5.70099C1183.6 5.7945 1182.66 5.8819 1181.94 5.69457C1179.27 4.78624 1176.53 4.33637 1173.79 4.35378C1171.75 4.59729 1169.79 3.91199 1167.89 3.24545C1165.31 2.33913 1162.82 1.4675 1160.34 3.01281C1159.98 3.24366 1159.84 3.33027 1159.78 3.42167C1159.7 3.55776 1159.81 3.70444 1159.65 4.35378C1159.65 4.35378 1152.14 2.62973 1151.24 3.01281C1150.79 3.20435 1150.33 3.37995 1149.86 3.55556C1149.4 3.73115 1148.94 3.90676 1148.49 4.09831C1142.53 3.45983 1136.37 2.69357 1130.8 1.41654L1105.93 1.85174C1104.54 1.79702 1103.15 1.73187 1101.76 1.66673C1098.27 1.50385 1094.79 1.34096 1091.31 1.34097C1089.4 1.93975 1087.44 2.11176 1085.49 1.85175C1081.56 0.937375 1077.6 0.319326 1073.63 0C1072.22 0.62533 1070.78 1.07404 1069.32 1.34097C1061.07 -0.0448443 1052.74 -0.322699 1044.45 0.510956H1037.25L1034.23 2.10723C1033.2 1.9267 1032.16 1.76035 1031.15 1.59483C1030 1.40902 1028.86 1.22425 1027.72 1.02165C1023.18 0.72783 1022.16 0.636351 1021.55 0.746973C1020.78 0.885163 1020.63 1.33873 1014.97 2.10723H1003.33C994.141 3.82994 995.13 3.00549 995.732 2.50328C996.247 2.07481 996.479 1.8809 989.869 3.70341L984.782 2.93724C980.905 2.57556 977.017 2.57556 973.141 2.93724L966.198 1.02165C961.984 -0.0184771 958.177 1.29747 954.913 2.42546C952.968 3.09782 951.216 3.70342 949.686 3.70342C949.024 3.70342 948.473 3.39013 947.886 3.05497C947.02 2.5614 946.07 2.02039 944.556 2.36262C943.917 2.52555 943.448 3.08768 943.02 3.59907C942.61 4.08964 942.24 4.53352 941.796 4.53352C941.007 4.89708 940.018 4.47913 939.009 4.05278C937.538 3.4308 936.023 2.79095 935.026 4.53352C930.417 2.19727 924.255 2.65452 918.259 3.09946C915.897 3.27469 913.561 3.44802 911.356 3.44802C908.764 3.55097 906.083 3.68439 903.338 3.821C894.166 4.27751 884.279 4.76952 874.622 4.27804C873.247 4.85089 871.786 5.48714 870.325 6.12358L870.311 6.12979L863.8 4.78881C862.787 4.71384 862.072 5.56352 861.47 6.2778C861.048 6.77995 860.681 7.2152 860.308 7.2152C857.937 6.58613 855.703 5.11863 853.798 2.93724C852.806 3.09278 851.564 3.09399 850.255 3.09528C846.726 3.09873 842.7 3.10267 841.726 6.12979C840.678 6.75015 839.319 6.01752 837.866 5.23356C837.224 4.88782 836.565 4.53209 835.905 4.27804C832.87 4.43096 829.794 4.59852 826.709 4.76666C823.351 4.94964 819.979 5.13333 816.632 5.29968C815.081 4.78891 813.7 4.27813 812.32 3.70342C811.683 3.7654 811.068 4.07549 810.538 4.60252C810.008 5.12955 809.582 5.85469 809.303 6.70442C805.387 4.76171 803.723 4.91148 802.21 5.04752C800.541 5.19764 799.058 5.33106 794.942 2.61793C794.45 2.87535 793.923 3.17605 793.389 3.48124C792.332 4.08437 791.245 4.70509 790.329 5.0443C789.638 2.93716 788.259 2.93725 786.361 2.93725C785.296 4.71476 784.646 6.95403 784.507 9.32233H784.292C781.049 4.85986 776.856 2.21708 772.435 1.85175C770.431 4.64603 767.854 6.37053 765.113 6.75219C762.372 7.13376 759.624 6.15084 757.302 3.95889H757.087L756.908 4.10186C755.429 5.28247 754.649 5.90531 754.068 8.30069L749.757 5.55517C748.093 6.1956 746.527 7.30071 745.143 8.81138L740.487 6.38509C739.143 6.22194 738.238 6.72591 737.283 7.2577C736.37 7.76646 735.41 8.30069 733.977 8.30069L731.433 5.87431C729.921 6.01275 728.449 6.64519 727.122 7.72607C725.689 7.60126 725.006 7.01565 724.24 6.35776C723.829 6.00593 723.396 5.63343 722.81 5.29968L717.938 7.98137C717.13 7.28349 716.975 7.45041 716.747 7.69897C716.536 7.92798 716.261 8.22631 715.351 7.98137C714.26 7.68758 713.44 7.25652 712.723 6.87949C710.946 5.94538 709.8 5.34291 706.728 7.98137C706.317 7.50647 705.739 7.23871 705.131 6.95738C704.267 6.55782 703.343 6.13088 702.761 5.0443C700.604 4.71042 698.426 5.26266 696.466 6.64049C695.117 6.09028 693.805 5.36381 692.543 4.46959L686.507 6.38509C684.527 5.10868 682.336 4.73102 680.211 5.2997C679.984 5.41986 679.861 5.63953 679.733 5.86677C679.522 6.24323 679.3 6.64049 678.574 6.64049C677.407 6.44864 675.973 6.24968 674.417 6.03409C671.315 5.60394 667.735 5.10761 664.863 4.46959C663.698 4.2142 653.955 6.64049 653.955 6.64049C651.01 4.40363 649.005 4.84425 646.731 5.34407C645.109 5.70029 643.352 6.08657 641.02 5.55517C637.888 4.55155 634.696 4.01679 631.492 3.9589C630.381 4.07425 629.262 4.43586 628.143 4.79776C626.784 5.23709 625.423 5.67683 624.076 5.67683C620.576 5.21338 617.05 5.47143 613.598 6.44317C612.69 6.72046 612.277 6.23582 611.931 5.82795C611.72 5.5784 611.532 5.35759 611.27 5.35759H610.107L609.46 6.57078C608.835 6.80213 606.804 6.54891 604.645 6.27967C602.036 5.9544 599.24 5.60574 598.509 6.05991C596.175 7.50327 590.209 5.44604 585.468 3.81115C582.239 2.69781 579.578 1.78032 579.02 2.29763C576.457 3.95402 573.663 4.67667 570.872 4.40486L571.561 6.32027C572.72 6.09552 573.894 6.09552 575.053 6.32027H575.528L575.744 8.49117C575.568 8.48652 575.377 8.48356 575.177 8.48044C572.631 8.44081 568.439 8.37555 570.398 4.46852L569.966 3.8939C568.014 3.61914 566.056 3.00486 564.103 2.39175C560.27 1.189 556.451 -0.00917151 552.72 1.36957C550.828 0.548088 548.827 0.438242 546.9 1.05017C545.545 1.26247 543.997 0.977978 542.427 0.689374C539.745 0.196823 536.999 -0.307722 535.043 1.62479L534.137 0.283996C529.283 2.12606 524.264 2.83709 519.263 2.39113C518.373 2.33951 517.491 2.24612 516.614 2.15318C515.321 2.01623 514.036 1.88027 512.752 1.88027C510.112 3.04666 507.341 3.41589 504.603 2.96585C504.507 3.14744 504.422 3.32107 504.34 3.48647C503.905 4.36786 503.585 5.01582 502.534 5.39213L502.059 2.96585C500.513 3.72901 499.138 4.55617 497.763 5.38296L497.748 5.39213C497.315 4.34362 497.134 4.25164 496.352 3.85567C496.277 3.81763 496.196 3.77679 496.109 3.73202C495.432 4.00887 495.084 4.36074 494.721 4.72664C494.415 5.0358 494.099 5.355 493.566 5.64744C493.566 5.53477 493.601 5.39416 493.639 5.24614C493.772 4.72308 493.927 4.10759 492.617 4.30664C491.637 4.45542 491.17 4.79918 490.678 5.16127C490.324 5.42075 489.959 5.68964 489.383 5.90291C489.421 6.78674 489.437 7.67208 489.431 8.55724C489.163 8.42244 488.902 8.25292 488.65 8.0493C488.057 8.27078 487.496 8.63672 486.988 9.12921L487.055 8.56008C485.914 9.12885 484.747 9.57685 483.563 9.90087L483.502 10.1629C483.158 10.0228 482.819 9.85842 482.485 9.67H482.01C482.786 9.35076 483.563 9.04746 484.338 8.74416C485.115 8.44087 485.891 8.13757 486.667 7.81833H487.141L486.883 4.81733C485.797 4.99607 485.762 4.95242 485.166 4.21954C485.123 4.16701 485.077 4.11095 485.029 4.05117C484.172 4.16484 483.296 4.47534 482.443 4.77738C480.423 5.49318 478.537 6.16162 477.355 4.05117L476.664 3.47654L476.449 6.22206C476.264 6.13994 476.05 6.04315 475.825 5.94175C475.001 5.57014 474.041 5.13666 473.905 5.13666H473.431L474.121 7.56303C475.242 8.0739 475.457 7.94612 476.19 6.73294L477.829 7.30755L479.467 11.0108L477.829 10.2447C477.492 10.5072 477.149 9.85107 476.8 9.18436C476.458 8.52967 476.111 7.86474 475.759 8.0493C475.624 10.5913 474.979 13.0152 473.905 15.0091H473.646C473.564 14.9127 473.49 14.8297 473.422 14.7543C473.001 14.2802 472.854 14.1139 472.482 12.9019C472.051 11.4971 472.698 10.0925 473.905 9.64558V9.13471L470.671 10.7556C470.258 11.0827 469.885 10.6449 469.568 10.271C469.242 9.88687 468.973 9.57016 468.775 10.2202H468.084L466.23 10.7556C468.045 9.15104 470.172 8.49864 472.266 8.90383C472.122 8.34911 471.997 7.99401 471.896 7.70274C471.691 7.1223 471.577 6.79535 471.577 5.64744H471.362L468.775 6.22206C469.007 6.87428 468.992 6.97323 469.129 7.04531C469.22 7.09317 469.379 7.12918 469.723 7.30755L469.249 7.81833C468.373 7.39254 467.576 6.6713 466.921 5.71138H465.756L465.282 6.47754L466.705 8.07381V9.15931C466.272 9.49489 465.792 9.67026 465.304 9.67026C464.815 9.67026 464.335 9.49489 463.903 9.15931L463.871 9.26968C463.387 10.9677 462.441 14.2853 460.669 15.0974H457.392C456.59 15.6763 456.519 16.0292 456.449 16.3788C456.372 16.7619 456.296 17.1409 455.26 17.8085H454.527V15.1267L455.538 15.0974C455.74 14.2003 455.594 14.0177 455.257 13.5935C455.089 13.3838 454.875 13.1148 454.632 12.671C456.902 13.327 457.609 12.1139 458.359 10.8235C458.779 10.1042 459.211 9.36088 459.936 8.90383C459.705 8.66671 459.473 8.52745 459.248 8.39182C458.927 8.19878 458.618 8.0131 458.34 7.56303C457.817 7.70956 457.336 8.08802 456.96 8.64844L456.486 7.56303C454.017 7.43821 451.548 6.88863 449.081 6.33966C445.258 5.48885 441.44 4.63952 437.645 5.37536C437.195 5.28317 436.749 5.14938 436.305 5.01602C435.519 4.77994 434.738 4.54525 433.94 4.54525C430.173 5.46939 426.325 5.46939 422.559 4.54525C423.026 4.28986 420.488 2.37435 419.757 2.37435C419.472 2.60035 419.219 2.90937 419.016 3.2826C418.823 3.65583 418.67 4.08535 418.589 4.54525C412.488 6.55383 406.203 7.00715 400.01 5.88605L398.365 3.45994H397.462L398.152 5.63084L397.939 6.397C395.253 6.13179 392.952 6.08576 390.858 6.04382C385.891 5.94441 382.076 5.86803 376.984 2.94898H375.858V3.45994C376.078 3.57923 376.3 3.69852 376.522 3.81813C377.608 4.40269 378.707 4.99474 379.787 5.63084L380.254 6.397C380.101 6.42338 379.939 6.42338 379.787 6.397C377.817 5.50083 375.715 5.50083 373.746 6.397C373.451 6.10112 373.208 5.70116 373.045 5.2331C372.883 4.76504 372.792 4.24351 372.802 3.71515C371.675 4.28977 371.675 5.12023 371.675 6.97163C367.37 6.46085 359.695 6.14153 354.436 6.14153L348.608 6.97163C345.756 6.35633 342.872 6.07865 339.989 6.14153C336.568 7.33847 333.035 7.61961 329.552 6.97163C329.024 7.21485 328.537 7.67084 328.172 8.29005C327.796 8.90925 327.542 9.66778 327.441 10.4833H327.227C326.647 9.77223 326.665 9.48354 326.714 8.72878C326.73 8.46692 326.75 8.14896 326.75 7.73779C323.877 7.06646 320.953 7.26192 318.131 8.31242C316.405 7.48436 314.588 7.20153 312.78 7.48232L307.653 8.05721C305.867 7.15723 303.978 6.78835 302.09 6.97163C301.86 7.05911 301.627 7.14846 301.391 7.23905C300.247 7.6774 299.029 8.1446 297.775 8.5679C295.182 8.72148 292.285 8.55693 289.219 8.38282C284.636 8.12263 279.678 7.84108 274.8 8.56791C273.878 8.6975 271.837 8.30091 269.965 7.93721C268.148 7.58421 266.49 7.26219 266.171 7.48232C265.939 7.6438 265.892 7.93864 265.846 8.23434C265.762 8.75708 265.679 9.28249 264.577 9.0786C263.078 8.80042 261.609 8.47392 260.111 8.14106L260.039 8.12497L259.45 7.99328C255.906 8.66487 252.323 8.77179 248.759 8.31242C244.212 8.81006 239.709 8.74409 235.369 8.68049C230.242 8.60536 225.342 8.53354 220.86 9.398C220.19 9.52202 219.378 9.08895 218.577 8.66178C217.729 8.20927 216.894 7.76338 216.251 7.99328C213.155 8.63202 210.028 8.63202 206.931 7.99328C202.637 8.71628 198.322 9.0785 193.997 9.0786C188.078 7.64464 182.058 7.47273 176.108 8.56791C173.747 9.12695 171.219 8.72992 168.799 8.34999C166.798 8.03568 164.871 7.73307 163.174 7.99328C157.857 8.82473 152.161 8.91044 146.513 8.99543C140.016 9.09317 133.583 9.18998 127.864 10.4195C126.265 10.7833 124.168 10.5126 121.924 10.2229C118.653 9.8006 115.068 9.33768 112.249 10.7388L112.727 9.0786L109.021 10.4195L108.544 9.39801C106.757 9.39633 105.001 10.0315 103.417 11.2497C102.29 10.495 101.204 9.59763 100.178 8.56791C97.9853 9.67009 95.5717 9.35875 93.1882 9.0513C90.1865 8.66413 87.2326 8.28304 84.8277 10.7387Z" fill="#F6F6F9"/>
</svg>
