<svg width="40" height="41" viewBox="0 0 40 41" fill="none" xmlns="http://www.w3.org/2000/svg">
<g clip-path="url(#clip0_1_1886)">
<path d="M30.0389 5.09302C30.0389 5.09302 30 5.12487 29.9741 5.15035C30.0065 5.13124 30.026 5.11213 30.0389 5.09302Z" fill="#294F4A"/>
<path d="M34.8092 11.5461L34.7314 11.4824C34.7639 11.5334 34.7898 11.5461 34.8092 11.5461Z" fill="#294F4A"/>
<path d="M25.5737 2.95885C25.5737 2.95885 25.5802 2.94611 25.5867 2.93974C25.5089 2.92063 25.4052 2.90152 25.2432 2.85693L25.5737 2.95248V2.95885Z" fill="#294F4A"/>
<path d="M33.2666 27.7015C33.2666 27.7015 33.299 27.6442 33.3185 27.6123C33.2925 27.6506 33.2731 27.676 33.2666 27.7015Z" fill="#294F4A"/>
<path d="M36.2153 18.2925C36.2542 18.3244 36.2672 18.3753 36.2801 18.4263C36.2801 18.3626 36.2801 18.3116 36.2153 18.2925Z" fill="#294F4A"/>
<path d="M22.9814 0.837402L23.137 0.964811C23.137 0.913848 23.0787 0.856514 22.9814 0.837402Z" fill="#294F4A"/>
<path d="M17.4663 2.27075C17.4663 2.27075 17.4793 2.2827 17.4922 2.28867C17.4922 2.27673 17.4858 2.27075 17.4663 2.27075Z" fill="#294F4A"/>
<path d="M19.6698 2.11799C19.7087 2.09888 19.7605 2.06066 19.8059 2.02881C19.7411 2.04792 19.6633 2.06703 19.6698 2.11799Z" fill="#294F4A"/>
<path d="M19.8773 1.99048L19.8125 2.03507C19.8514 2.02233 19.8838 2.01596 19.8773 1.99048Z" fill="#294F4A"/>
<path d="M16.2739 5.22029C16.4035 5.14385 16.4619 4.99733 16.5332 4.85718L16.2739 5.22029Z" fill="#294F4A"/>
<path d="M21.1085 35.7539L21.1279 35.7029C21.1279 35.7029 21.102 35.7411 21.1085 35.7539Z" fill="#294F4A"/>
<path d="M15.8525 4.23281L15.9562 4.19458C15.9109 4.19458 15.8785 4.2137 15.8525 4.23281Z" fill="#294F4A"/>
<path d="M26.0986 0.901161C26.2931 0.824715 26.5977 1.05405 26.6236 0.939383C26.4421 0.913902 26.2153 0.761011 26.0986 0.901161Z" fill="#294F4A"/>
<path d="M15.8526 4.23291L15.7295 4.2775C15.7295 4.2775 15.7749 4.29662 15.7943 4.30936C15.8073 4.2775 15.8267 4.25202 15.8526 4.23291Z" fill="#294F4A"/>
<path d="M7.6349 30.0142L7.66731 30.0321L7.62842 30.0142H7.6349Z" fill="#294F4A"/>
<path d="M7.33008 29.2371L7.45969 29.3581C7.42081 29.2753 7.37544 29.2498 7.33008 29.2371Z" fill="#294F4A"/>
<path d="M16.5327 4.8572L16.6818 4.64697C16.617 4.70431 16.5716 4.78075 16.5327 4.8572Z" fill="#294F4A"/>
<path d="M4.66016 21.1782C4.66016 21.1782 4.66623 21.2292 4.67838 21.2547C4.67838 21.2228 4.67838 21.1974 4.66016 21.1782Z" fill="#294F4A"/>
<path d="M36.2544 17.6427C36.2544 17.6427 36.2674 17.5917 36.2739 17.5662C36.248 17.5662 36.2285 17.5662 36.2544 17.6427Z" fill="#294F4A"/>
<path d="M38.5615 24.8284V24.8343H38.5675L38.5615 24.8284Z" fill="#294F4A"/>
<path d="M38.5421 24.408C38.4772 24.5163 38.5096 24.7138 38.568 24.8285C38.6069 24.7074 38.6198 24.5864 38.5421 24.408Z" fill="#294F4A"/>
<path d="M38.2373 25.6249L38.2697 25.5867C38.2697 25.5867 38.2438 25.6122 38.2373 25.6249Z" fill="#294F4A"/>
<path d="M39.7019 19.3438C39.7019 19.3438 39.6565 19.4075 39.6436 19.452C39.6695 19.4266 39.6889 19.3883 39.7019 19.3438Z" fill="#294F4A"/>
<path d="M36.8761 29.3643L36.8701 29.3702L36.8761 29.3643Z" fill="#294F4A"/>
<path d="M25.5154 39.7163C27.0579 39.1557 28.8337 38.0536 30.2011 37.2573C30.3631 36.8751 30.7714 36.5948 31.1344 36.2508L31.3742 36.4801L31.6528 36.1488C31.8537 36.1234 31.426 36.3845 31.7501 36.3081V36.0533C31.8537 36.1297 32.6379 35.429 32.2426 36.0597C32.6703 35.7093 33.1046 35.3653 33.4934 34.9831C33.7656 34.741 33.461 34.6454 33.8045 34.4288C33.9341 34.4416 33.7526 34.5753 33.8563 34.6327C34.8868 33.9383 34.3489 33.2121 35.1655 32.4795L35.1396 32.5814C35.1849 32.3839 35.4117 32.11 35.3793 32.0781C35.0294 31.9889 35.3988 32.3393 35.0423 32.4858C34.8414 32.2884 35.1784 32.0718 34.997 31.9571C35.2303 31.8233 35.1979 31.6067 35.3145 31.4283C35.6775 31.2309 35.8784 30.7212 36.2219 30.6129C36.2478 30.4091 36.1246 30.0906 36.3191 29.7593C36.6561 29.6319 36.4617 29.9249 36.7403 29.6382L36.6302 29.5045C36.8051 29.2433 36.8181 29.3134 36.8829 29.3579C37.0514 29.0713 36.8246 29.0076 37.1227 28.6954L37.1486 28.9694C37.2458 28.6699 37.3301 28.5744 37.5375 28.1922C37.6152 28.2431 37.5375 28.396 37.4532 28.4979C37.7773 28.396 37.5375 28.0902 37.6217 27.9883C37.544 27.9883 37.3819 28.2431 37.2977 28.0456C37.4208 27.8673 37.2977 27.5487 37.5375 27.4914L37.5764 27.7653C37.6541 27.313 37.4921 27.4659 37.7578 27.0327C37.7578 27.0646 37.8032 27.0646 37.8291 27.0901C37.7708 26.7206 38.1078 26.4021 38.2828 25.9625V26.0644C38.3087 25.8669 38.205 25.7204 38.2569 25.6249C38.0754 25.8478 38.0559 25.7587 37.9004 25.7332C38.2828 25.4911 37.7902 25.128 38.1143 24.6375C38.1985 24.6693 38.2698 24.8349 38.1272 24.956C38.3281 25.2235 38.5485 25.3255 38.5485 25.7013C38.5679 25.472 38.6003 25.2108 38.6976 25.3L38.4772 25.1535C38.5096 25.026 38.5615 24.9305 38.5874 24.8349C38.4513 24.733 38.2504 25.0133 38.2439 24.6884C38.2698 24.338 38.555 24.5865 38.4578 24.5037C38.4966 24.0195 38.2439 24.2425 38.4448 23.822C38.4513 23.873 38.4772 23.9686 38.4448 24.0004C38.6263 23.7074 38.6068 23.2168 38.9244 23.185C38.9827 23.2487 39.0734 23.2805 39.0151 23.3952L38.9698 23.3825C39.0994 23.7902 38.9827 23.0703 39.2225 23.2423C39.054 23.2296 39.1901 22.7837 39.2614 22.5798L39.0605 22.6117C38.6392 21.8281 39.4364 22.7199 39.4753 22.0192C39.4169 21.5605 39.3975 22.1785 39.3068 21.8854C39.378 21.5988 39.5725 21.5096 39.5466 21.0636C39.6308 20.949 39.7604 20.7133 39.9743 20.7069C39.9224 20.433 40.1428 19.8915 39.9354 19.7258C39.741 20.1781 40.1298 20.2036 39.8058 20.7196L39.6178 20.554C39.6762 20.1845 39.5854 19.7067 39.6697 19.4583C39.6243 19.5092 39.5725 19.5284 39.5271 19.4965C39.4753 18.9678 39.2614 18.8212 39.3132 18.318C39.5012 18.2479 39.4753 18.5473 39.4947 18.7639C39.6438 18.4326 39.4947 18.4199 39.553 17.9103C39.7151 17.8784 39.553 18.2543 39.7151 18.3116C39.6956 18.1205 39.6762 17.9294 39.6502 17.7446C39.6632 17.7446 39.6697 17.7446 39.6826 17.7446C39.3975 17.6746 39.6762 17.3114 39.566 16.9674C39.4882 16.1457 39.0799 16.0756 38.8142 15.6679C38.8661 15.5405 38.9309 15.4959 39.0086 15.5341C38.9244 15.7507 39.0086 15.6997 39.0929 15.7571C39.0281 15.4959 39.2549 15.12 39.3975 15.2538C39.2355 14.8333 39.2808 15.4322 39.1512 15.1837L39.054 14.5913C38.9309 14.6932 38.9373 14.897 38.7753 14.6231C38.6846 14.381 38.6716 14.2536 38.6068 13.9287C38.6846 13.9606 38.7883 13.7758 38.8401 14.0243C38.8531 13.8523 38.7948 13.5975 38.6392 13.5401C38.6133 13.9287 38.3541 12.9923 38.218 13.3172L38.2309 12.9286C38.2504 13.0114 38.3476 12.9923 38.3541 13.1197C38.5291 12.9604 38.205 12.8458 38.1467 12.7311C38.1467 12.5909 38.0624 12.2724 38.1272 12.2215C38.03 12.1323 37.9782 11.852 38.0624 11.7628C37.9587 11.6163 37.9263 11.801 37.8421 11.7755C37.7773 11.5908 37.7189 11.406 37.6412 11.2213C37.7384 11.1512 38.0235 10.9792 38.1013 11.0429C37.9069 10.8773 37.7449 11.1003 37.6217 10.7881C37.9134 10.8773 37.6023 10.3039 37.9652 10.4568C38.0495 10.202 37.7773 9.69237 37.5828 9.44393C37.3301 9.35474 37.6412 9.7943 37.4662 9.85801C37.019 9.10629 36.5135 9.32289 36.2867 8.73681L36.3256 8.90244C36.0404 8.62214 36.0793 8.64762 35.82 8.53932C36.0728 8.51384 36.1117 7.83221 35.6839 7.32894C35.5543 7.35442 35.7163 7.74939 35.5025 7.7685L35.2173 7.44998C35.2173 7.41176 35.2756 7.43087 35.3275 7.44998C35.0294 7.19516 35.1396 6.69827 34.8544 6.78108V6.48167C34.7313 6.51352 34.4202 6.20774 34.3294 6.16952C33.9471 5.92107 33.8952 5.75544 33.8369 5.47514C33.8239 5.59618 33.798 5.87648 33.5323 5.65989C33.811 5.3987 33.1175 5.05469 33.2536 4.92728C33.1434 4.8381 33.0397 4.58328 32.9231 4.68521L33.0981 4.53232C32.8583 4.74254 32.4824 4.39854 32.1324 4.20742C32.4759 3.92075 31.7825 3.95898 31.8667 3.5449C31.6269 3.74238 31.2121 3.23912 31.0112 3.41112C30.752 3.25186 30.9205 3.048 30.9075 2.92059L30.7261 2.93971C30.6613 2.74859 30.1817 2.41733 29.903 2.19436L29.4947 2.28355L29.4429 2.12429C29.3651 2.16251 29.1123 2.0797 29.216 2.23896L29.067 2.14977C28.9309 2.40459 28.8142 2.13066 28.4448 2.11155C28.3865 2.04147 28.4318 1.98414 28.5161 1.97777C28.3606 1.90769 28.4837 1.7994 28.4318 1.67836C28.5096 1.79303 27.6736 1.92681 28.0495 2.21985C28.0365 2.33451 27.7643 2.32177 27.6282 2.22622V1.95229L27.3431 2.14977C27.0903 2.11155 27.0385 1.90769 26.844 1.82488C27.0514 1.86947 27.4532 1.48724 26.9088 1.33435C27.207 1.37257 27.3884 1.29613 27.5569 1.29613C27.4467 1.25154 27.3949 1.20694 27.6088 1.16235C27.1551 1.09865 27.4208 1.25791 26.9801 1.16235C27.0709 0.945756 26.9672 0.843829 26.6042 0.671827L26.844 0.907533C26.844 0.907533 26.7987 0.945756 26.7727 0.952126C26.8764 1.00309 26.8959 1.04768 26.8894 1.13687C26.8051 1.11139 26.3191 1.28339 26.2867 1.13687C26.4552 1.3662 26.2543 1.38532 26.0404 1.38532C25.8265 1.38532 25.5932 1.38532 25.7099 1.51273C25.6451 1.57006 25.3534 1.52547 25.3469 1.4108C25.7358 1.30887 25.1266 1.10502 25.2108 0.958497C25.0683 0.996719 25.4636 1.18146 25.2692 1.23243C25.0553 1.20694 24.9257 1.04131 24.809 0.958497L24.9062 0.926644L24.5822 0.786495C24.5109 0.894792 24.8803 1.01583 24.5628 1.04131C24.485 0.983978 24.1739 1.00946 24.1933 0.920274C24.3554 0.780124 24.2711 0.557159 24.5498 0.550788C24.323 0.531677 23.6101 0.493454 23.8823 0.735531L23.6165 0.71642C23.7786 0.818347 24.2193 1.0222 23.6943 1.0222V0.977608L23.3314 1.13687L23.1823 1.00946C23.1823 1.06679 23.124 1.11776 22.9944 1.11139C22.962 1.04131 22.8388 1.00946 22.8453 0.913904C22.4565 0.933015 22.4889 1.04768 22.437 1.11776C22.2232 1.13687 22.1389 1.09228 22.2361 0.952126C21.9315 0.913904 21.4195 0.990349 21.1992 0.888422C20.8103 1.02857 21.2834 0.926644 21.0696 1.10502C20.8751 0.913904 20.5381 0.920274 20.1687 1.00309C19.7993 1.07316 19.4169 1.23243 19.1059 1.34072C19.3651 1.64014 18.9374 1.42354 18.9114 1.7548C19.0216 1.60828 18.2439 1.65288 18.7688 1.4108C18.6587 1.44902 18.5485 1.49999 18.4448 1.54458C18.1532 1.42991 18.9633 1.2388 18.5355 1.0859C18.1467 1.21968 18.0235 1.65925 17.5375 1.6911C17.5958 1.39806 17.2329 1.90132 17.2394 1.60191C17.2977 1.48087 17.4273 1.45539 17.5504 1.39169L17.4532 1.37257C16.5978 1.64014 17.3236 1.74206 16.9672 2.06696C16.4941 2.28992 16.507 2.05421 16.4228 1.95866C16.3256 1.95229 16.0987 2.10518 16.0015 2.22622C16.2283 1.94592 16.6107 2.09881 16.5459 2.30903C16.2154 2.15614 15.833 2.63392 15.7682 2.79319C16.5718 2.73585 16.2348 2.56385 16.9931 2.57022C17.0449 2.45555 16.9283 2.22622 17.3495 2.16888C17.1551 2.38548 17.4208 2.29629 17.5051 2.30266C17.3755 2.20073 17.7449 2.13066 17.8421 2.04147C17.9911 2.11792 17.7254 2.43007 18.1337 2.36637L18.0948 2.01599C18.2698 2.01599 18.1078 2.27718 18.4124 2.09244C18.2957 2.32177 18.5485 2.34088 18.1337 2.532C18.7364 2.64667 18.8661 2.12429 19.2614 1.90769C19.2225 1.93955 19.229 1.98414 19.1966 2.01599C19.2614 1.90769 19.4234 1.87584 19.5466 1.82488C19.8382 1.83762 19.3651 2.02873 19.4558 2.10518C19.5984 2.06696 19.7475 2.02873 19.89 1.99688C19.903 2.00962 19.903 2.00962 19.903 2.01599C20.0132 1.95229 20.1169 1.90132 20.1752 1.97777C20.065 2.10518 20.0326 2.22622 19.9678 2.32814L20.3826 2.01599C20.3502 2.13703 20.7909 2.14977 20.4798 2.28355C20.7002 2.23259 20.9205 2.17525 21.1473 2.1434L21.2316 2.37274C21.3871 2.3154 21.3871 2.27081 21.1927 2.25807C21.4195 2.28355 22.1972 1.77392 22.0935 2.24533C22.6185 2.04147 22.8129 2.10518 23.4675 2.02873C22.962 2.21985 24.0184 2.32814 23.4869 2.39822C23.7786 2.51289 23.8628 2.27081 24.1091 2.26444C24.323 2.39185 24.1933 2.60207 23.9471 2.65941L24.2387 2.58933L24.2258 2.63392L24.485 2.532C24.7248 2.68489 24.5044 2.76133 24.7637 2.83778L24.8544 2.64667L25.0099 2.79956C24.9581 2.69126 25.1201 2.68489 25.321 2.704L25.3081 2.74859H25.5478C25.2886 2.83141 25.7488 2.83778 25.6127 2.95882C25.8071 3.01615 25.8071 3.01615 26.17 3.07349L26.1441 2.92059C26.6366 2.92059 26.1052 3.12445 26.4746 3.23275L26.5005 3.07349C26.9348 3.50668 27.4467 3.20726 27.7643 3.53853C27.531 3.48756 27.518 3.68505 27.5375 3.64045C27.881 3.7169 28.3865 3.96535 28.7948 3.96535C28.8013 4.23291 28.8077 4.30298 29.0734 4.57054C29.3068 4.69158 29.3521 4.69158 29.5012 4.61513C29.6827 4.81262 30.1622 4.96551 30.0715 5.1184C30.2011 5.04195 30.2465 5.27129 30.428 5.25855L30.4085 5.33499L30.4863 5.18847C30.6418 5.72996 31.2316 5.50062 31.3936 6.02937L31.3029 6.01026C31.3677 6.03574 31.426 6.06122 31.4908 6.09307C31.4649 6.16952 31.3806 6.14404 31.3094 6.20774L31.9445 6.82568C31.9315 6.7556 31.9186 6.68553 31.9056 6.61545C32.0611 6.72375 32.2556 6.71738 32.3333 6.94034C31.9056 6.85116 32.5342 7.16331 32.437 7.32894L32.2556 7.23338C32.3852 7.3523 32.4846 7.36929 32.5537 7.28435C32.8324 7.49457 32.4694 7.6602 32.8129 7.78124L32.6768 7.60924C32.7027 7.49457 32.9101 7.53279 33.0073 7.64746C33.0073 7.69206 33.0268 7.81946 32.9361 7.74302C33.1629 7.90228 33.3508 8.27177 33.4675 8.3291C33.5129 8.47562 33.3897 8.50747 33.3119 8.46925C33.7656 8.84511 33.448 8.68584 33.8887 9.07444L33.8045 9.11903L34.0054 9.22096L33.9924 9.5586L34.0378 9.41207C34.1545 9.5586 34.2841 9.61593 34.3424 9.83889H34.1804C34.5044 10.253 34.297 10.4632 34.6924 10.8136C34.6859 10.8582 34.6081 10.8072 34.5757 10.7817C34.9775 11.1003 34.5109 11.1958 34.9581 11.4952C34.9062 11.4889 34.8738 11.5589 34.8285 11.5589L34.997 11.7118L34.822 11.7755L35.146 11.8201L35.0229 12.0112L35.1396 12.0495C34.9062 12.3871 35.2692 12.5782 35.1201 12.9604L35.3275 12.833C36.0793 13.4064 35.6191 14.5849 36.021 15.4258L35.833 15.4449L36.1182 15.7762C36.008 15.9991 35.9367 15.6806 35.8524 15.7634C36.0274 16.1457 36.17 15.8781 36.2802 16.3495C36.1895 16.6107 36.1311 16.2858 36.0534 16.1839C36.2089 16.6043 36.3904 17.2541 36.2996 17.579C36.3256 17.579 36.358 17.6045 36.3709 17.579C36.4876 17.872 36.4033 18.267 36.4228 18.5983C36.3385 18.5919 36.3191 18.5091 36.2996 18.4326C36.2931 18.5473 36.2348 18.7066 36.3256 18.8085L36.1635 18.6875C36.1506 18.9359 36.2543 19.4201 36.0663 19.4647C36.1376 19.4392 36.2802 19.4583 36.2607 19.6749C35.9821 19.7768 36.332 20.2737 36.1441 20.605C36.0793 20.554 36.0922 20.3056 36.0793 20.3756C35.9885 20.5413 36.1117 20.7069 36.1765 20.8725L36.0663 20.8152L36.0987 21.6433C35.8071 21.7134 35.9885 22.4014 35.7941 22.3122C35.7228 22.5925 35.9691 22.102 35.9237 22.4651C35.7876 22.5352 35.9108 22.8028 35.7293 22.7454L35.7164 22.7008L35.6645 22.9493L35.5284 22.7518C35.509 22.9684 35.6451 23.1723 35.7812 23.2168C35.6321 23.3952 35.6321 23.7074 35.4377 23.752L35.4182 23.6628C35.3081 24.2489 34.647 24.4209 34.7701 24.9496C34.7313 24.9751 34.6924 24.9496 34.7183 24.8859L34.5822 25.2172L34.485 25.0898C34.485 25.3 34.4591 25.5038 34.4461 25.7141L34.3618 25.6695C34.1804 26.0135 33.9471 26.5804 33.7397 27.0391V26.9563C33.5906 27.5041 33.4027 27.3767 33.286 27.7717C33.2731 27.7462 33.2731 27.7335 33.2731 27.7144L33.0851 28.0202L33.0527 27.9055C33.0786 28.2368 32.4241 28.4088 32.6574 28.3578C32.6444 28.5298 32.5861 28.7974 32.6574 28.8993C32.437 29.2305 32.5018 28.912 32.3009 29.0649C32.1259 29.2879 32.2167 29.4217 31.9186 29.6765L31.8473 29.6128C31.7501 29.7657 31.7371 29.8994 31.5815 30.0906L31.5945 30.0077C31.4714 30.4409 31.0566 30.218 31.1473 30.7212C30.9723 30.7913 30.7844 31.0652 30.6613 30.9314C30.402 31.3838 30.1428 31.6832 29.8123 32.0781C29.5466 31.8998 29.741 32.1609 29.391 32.2246L29.5141 32.3329C29.2484 32.575 28.879 32.7343 28.5031 32.8872C28.1402 33.0528 27.7513 33.1866 27.4403 33.4223L27.3366 33.2949L27.2977 33.5306C26.5329 33.8937 25.5349 34.3142 24.9127 34.5435C24.7442 34.6964 24.5044 35.0213 24.148 35.0659L24.1739 35.034C23.8952 35.1678 23.6101 35.3079 23.3055 35.4162C22.9944 35.5118 22.6768 35.5819 22.3398 35.6201C22.3657 35.5436 22.288 35.5118 22.3528 35.4481C22.2361 35.6583 21.9704 35.5245 21.8343 35.55L22.0222 35.6392C21.8667 35.8239 21.5686 35.7284 21.4584 35.6265C21.3677 35.7029 21.2834 35.7794 21.1927 35.8431C21.1733 35.8303 21.1344 35.8048 21.1279 35.7794L21.089 35.8685L20.9075 35.6711C20.8427 35.722 20.4604 35.8176 20.3502 36.0405C20.3178 35.9768 20.0326 35.9259 20.2465 35.8813C19.8836 35.8685 19.5206 35.8813 19.1642 35.8622C19.2225 35.8877 19.2744 35.9131 19.3327 35.9386C19.3586 36.1042 19.0281 36.1998 18.8596 36.1234C19.0864 35.9959 18.879 35.894 18.7883 35.773C18.6392 35.8558 18.9114 35.9195 18.8337 36.0087C18.6457 36.1106 18.2439 36.168 18.1532 36.0788C18.1921 36.0597 18.2309 36.0405 18.2698 36.0214C18.0106 36.066 17.9199 35.7666 17.6736 35.7602C17.4403 35.8685 17.2912 35.7348 17.3042 36.0151C16.9736 36.0342 17.207 35.8112 17.1097 35.773C16.9412 35.8813 16.5135 35.722 16.4876 35.5755C16.2283 35.9641 15.6904 35.2442 15.5479 35.5755L15.3469 35.3271C15.3145 35.4099 15.2044 35.6074 14.9905 35.5755C14.8285 35.4162 14.9257 35.2825 14.8933 35.1742L14.66 35.4608C14.4137 35.2888 14.135 35.1423 13.8563 34.9831C13.5712 34.8302 13.2666 34.7027 12.9749 34.5307C12.3787 34.2186 11.7889 33.8491 11.3612 33.3713C10.8622 33.1229 10.2011 32.8044 9.7345 32.3329L9.81875 32.3521L9.41046 31.8361L9.64377 32.2756C9.51415 32.2055 9.38453 32.1801 9.28732 32.0781C8.84662 31.4857 8.36703 30.6575 7.68006 30.0651C7.02549 29.823 7.75135 29.5554 7.20048 29.2688C7.2588 29.2879 7.31713 29.2688 7.37546 29.2815C6.94124 28.8611 6.72089 28.6253 6.22186 28.2113C6.60424 28.0902 6.0404 27.8673 6.24779 27.8227L6.07928 27.8482C6.10521 27.6889 5.99503 27.3959 6.12465 27.3895C6.02096 27.3449 5.93022 27.2876 5.83301 27.2366L5.97559 27.1474C5.85245 26.8289 5.4312 26.1918 5.70987 25.9052C5.159 25.2044 4.92569 23.8603 4.88032 22.8155C4.73126 22.6817 4.67941 22.3759 4.65349 22.1402L4.84792 21.8918C4.78311 21.6688 4.53035 21.414 4.65349 21.2038C4.67941 21.2038 4.69238 21.2165 4.70534 21.2293C4.67293 20.9872 4.80903 20.777 4.64701 20.5349C4.67293 20.2737 4.80903 20.038 4.98402 20.1399C4.66645 20.0698 5.13308 19.6112 5.13308 19.6112C5.13308 19.6112 5.2951 18.8021 5.83949 17.5981C6.37092 16.3877 7.33657 14.7887 8.64571 13.2025C9.94189 11.6099 11.5686 10.0491 13.0138 8.68584C14.472 7.33531 15.7293 6.15041 16.3191 5.26492C16.3385 5.06106 16.5913 4.77439 16.3709 4.69158C16.5783 4.48772 16.8375 4.65336 16.7987 4.48772C16.4163 4.60876 16.6755 4.07364 16.2478 4.11187L16.4293 3.94624C16.4098 3.8252 16.2219 4.23291 16.1571 4.02905L16.2607 4.31572C16.0728 4.3858 15.9432 4.39217 15.833 4.3412C15.7423 4.53869 15.8654 4.94002 15.3988 5.02921L15.4895 4.9464C15.1914 5.15025 15.1979 4.90817 15.1072 4.90817L15.1784 4.86995L14.835 4.90817C15.0877 4.86358 15.2692 4.46224 15.1136 4.58328C14.7053 4.74891 15.2497 4.58328 14.997 4.78713C14.835 4.90817 14.7961 4.74891 14.7507 4.6661C14.6535 4.73617 14.5563 4.80625 14.4591 4.87632C14.3878 4.75528 14.66 4.74891 14.4591 4.71069L14.1674 5.09292C13.8952 4.85721 13.8628 5.51336 13.4934 5.36684C13.7138 5.11203 13.4027 5.2904 13.3768 5.16936C13.1629 5.32862 12.9361 5.48151 12.7287 5.65351C12.6379 5.65988 12.8324 5.43692 12.7481 5.52611C12.5666 5.53885 12.5991 5.7427 12.5342 5.79366C12.4176 5.76181 12.0547 6.16315 11.9315 5.96567C11.3936 6.17589 11.9315 6.33515 11.439 6.53901C11.2964 6.46893 11.7436 6.26508 11.4714 6.29056C11.3418 6.4116 11.2121 6.53264 11.0825 6.66004C11.0825 6.57723 11.0177 6.41797 11.1927 6.31604C10.5705 6.69827 9.99374 6.87664 9.44286 7.08686C8.91143 7.3162 8.4124 7.57739 7.97818 8.09339C7.71895 8.10613 7.99762 7.92139 8.02355 7.74939C7.46619 8.58392 6.75978 8.45651 6.18298 9.08718L6.27371 9.18911C5.14604 9.78156 4.38777 11.0429 3.47397 12.0941L3.64895 12.0112C3.64895 12.2406 3.49341 12.5018 3.41564 12.7184C3.33787 12.7184 3.24714 12.4189 3.08512 12.7948C3.16937 12.7502 3.30547 12.6355 3.33787 12.712C2.88421 13.1261 2.30741 13.8714 1.83431 14.8079C1.3288 15.7252 0.914022 16.8145 0.564055 17.7892C0.240011 19.127 -0.0386671 20.5859 0.000218191 22.0702C0.0326226 23.5163 0.188164 24.9241 0.615902 26.211C0.499246 25.816 0.881618 25.8988 0.881618 26.211C0.693672 26.6951 0.862175 27.0327 1.01772 27.364C1.17974 27.7016 1.36768 28.0138 1.3612 28.4788C1.73709 29.1668 2.01577 29.8485 2.30741 30.5174C2.63794 31.1608 2.9879 31.7978 3.60359 32.2501L3.48045 32.3648C3.54526 32.5878 3.67488 32.5687 3.81746 32.747L3.77857 32.7725C4.06373 33.2375 4.60812 33.6389 4.74422 33.9256L4.89976 33.8236C5.12659 34.0466 4.89976 34.0402 5.20436 34.2122L5.12659 34.2696L5.51545 34.4288C5.38583 34.5244 5.52841 34.6964 5.72284 34.8748C5.92374 35.0468 6.17002 35.2251 6.21538 35.3653C6.54591 35.6201 7.24584 36.0214 7.69302 36.461C7.6671 36.6776 8.31519 37.1171 8.67812 37.4739C9.09289 37.7287 9.62433 38.009 10.1752 38.3084C10.7455 38.5823 11.3288 38.8945 11.9056 39.1429L11.9639 38.9391L12.2685 39.0474C12.2491 39.0856 12.2815 39.1302 12.2232 39.1302C12.3657 39.4551 12.9555 39.3277 13.1564 39.5443C13.0592 39.315 12.949 39.4487 12.774 39.385C12.5537 39.2067 12.8648 39.0984 13.1694 39.3022L13.1499 39.3404L13.4156 39.3086C13.3897 39.4742 13.5777 39.6144 13.5582 39.7736C14.6146 40.0412 15.3793 39.9138 16.4487 40.1558C16.3126 40.3342 17.2394 40.1941 16.9801 40.4871C17.6541 40.4298 16.8959 40.2259 17.2199 40.0284C17.4014 40.0476 17.5958 39.9838 17.6217 40.0985C17.531 40.1686 17.7578 40.3024 17.6023 40.3215C17.7513 40.3215 17.8939 40.3342 18.043 40.3279C18.0819 40.3533 17.9847 40.3916 17.9328 40.417C18.3865 40.3406 18.7753 40.3979 19.1642 40.4553C19.5466 40.5062 19.9289 40.5317 20.3243 40.4234C20.3761 40.3087 20.0067 40.4043 20.0585 40.2896C20.8427 40.0284 20.7844 40.4425 21.5167 40.2068L21.3806 40.3788C21.6075 40.2387 21.6982 40.1049 22.1065 40.1686C22.2037 40.347 21.7954 40.3724 21.614 40.4744C21.8926 40.4616 22.5731 40.2833 22.3333 40.1558C22.6444 40.0412 22.7935 40.1813 22.9749 40.2004C22.9749 40.1558 22.6509 40.1304 22.8194 40.0157C23.2795 40.0539 23.9471 39.8692 24.4785 39.7545C24.485 39.7991 24.5433 39.8564 24.5044 39.8883C24.8609 39.5379 24.9322 39.9393 25.496 39.7099L25.5154 39.7163Z" fill="#294F4A"/>
<path d="M39.6829 17.5215L39.6699 17.7317C39.7088 17.7317 39.7607 17.7317 39.8125 17.8337L39.6829 17.5215Z" fill="#294F4A"/>
<path d="M37.8096 27.0901C37.8096 27.0901 37.8096 27.1474 37.829 27.1793C37.842 27.1283 37.829 27.1092 37.8096 27.0901Z" fill="#294F4A"/>
<path d="M37.032 29.377C37.0838 29.2051 36.9607 29.3197 36.8765 29.3643C36.9089 29.3834 36.9477 29.4025 37.032 29.377Z" fill="#294F4A"/>
<path d="M38.0884 12.2088C38.0884 12.2088 38.1467 12.247 38.1856 12.2279C38.1337 12.196 38.1078 12.1897 38.0884 12.2088Z" fill="#294F4A"/>
<path d="M27.7773 1.37891C27.7773 1.37891 27.8097 1.40439 27.8292 1.4235C27.8292 1.40439 27.8033 1.39165 27.7773 1.37891Z" fill="#294F4A"/>
<path d="M28.4771 1.9585C28.5159 1.97761 28.5678 1.99035 28.652 2.00309C28.5872 1.96487 28.5289 1.9585 28.4771 1.9585Z" fill="#294F4A"/>
<path d="M39.0605 15.7444C39.0735 15.8017 39.093 15.8527 39.1383 15.8909C39.1254 15.8081 39.093 15.7635 39.0605 15.7444Z" fill="#294F4A"/>
<path d="M28.8335 2.02881L29.0279 2.13074L29.0474 2.09888L28.8335 2.02881Z" fill="#294F4A"/>
<path d="M27.5181 1.27075C27.5958 1.3026 27.706 1.34083 27.7773 1.37905C27.6931 1.29623 27.6088 1.27075 27.5181 1.27075Z" fill="#294F4A"/>
<path d="M35.2949 7.42432C35.2949 7.42432 35.3079 7.43706 35.3144 7.43706C35.4764 7.51988 35.3921 7.45617 35.2949 7.42432Z" fill="#294F4A"/>
<path d="M29.8384 2.14966L29.8643 2.16758L29.9485 2.14966H29.8384Z" fill="#294F4A"/>
<path d="M26.6235 0.939391C26.6624 0.939391 26.7013 0.945762 26.7402 0.939391L26.6235 0.888428C26.6235 0.888428 26.6235 0.933021 26.6235 0.945762V0.939391Z" fill="#294F4A"/>
<path d="M33.3897 4.84448C33.299 4.85085 33.2471 4.86997 33.2212 4.89545C33.273 4.94004 33.3314 4.94641 33.3897 4.84448Z" fill="#294F4A"/>
<path d="M27.2005 18.7576C27.2005 18.7576 27.1551 18.7703 27.1162 18.7831C27.1486 18.7767 27.1745 18.7703 27.2005 18.7576Z" fill="#294F4A"/>
<path d="M27.0124 21.9809L26.98 21.9363C26.98 21.9363 26.9929 21.9745 27.0124 21.9809Z" fill="#294F4A"/>
<path d="M26.2803 16.9229L26.2997 16.9101L26.209 16.7891L26.2803 16.9165V16.9229Z" fill="#294F4A"/>
<path d="M22.5537 26.3184L22.5926 26.3064C22.5926 26.3064 22.5602 26.3064 22.5537 26.3184Z" fill="#294F4A"/>
<path d="M25.8198 24.3762C25.8198 24.3762 25.8393 24.4272 25.8393 24.4527C25.8587 24.4336 25.8652 24.4145 25.8198 24.3762Z" fill="#294F4A"/>
<path d="M26.5784 14.7441L26.5654 14.8906C26.5978 14.846 26.6108 14.7887 26.5784 14.7441Z" fill="#294F4A"/>
<path d="M24.6987 14.7633C24.6987 14.7633 24.7506 14.7506 24.783 14.7442C24.7571 14.7378 24.7182 14.7187 24.6987 14.7633Z" fill="#294F4A"/>
<path d="M24.8286 14.7314L24.7832 14.7433C24.7832 14.7433 24.8156 14.7433 24.8286 14.7314Z" fill="#294F4A"/>
<path d="M22.5215 15.8018C22.5863 15.8145 22.6511 15.7253 22.7159 15.6553L22.5215 15.8018Z" fill="#294F4A"/>
<path d="M16.98 25.8032L17.0124 25.7649C17.0124 25.7649 16.9865 25.7904 16.98 25.8032Z" fill="#294F4A"/>
<path d="M22.709 14.7571L22.7543 14.7889C22.7543 14.7889 22.7219 14.7571 22.709 14.7571Z" fill="#294F4A"/>
<path d="M27.9004 15.5151C28.0494 15.4959 28.0494 15.7189 28.1402 15.6425C28.0689 15.5851 28.0494 15.4322 27.9004 15.5151Z" fill="#294F4A"/>
<path d="M13.0396 28.549L12.9878 28.5171C12.9878 28.5171 13.0202 28.549 13.0396 28.549Z" fill="#294F4A"/>
<path d="M22.7091 14.757L22.6572 14.7251L22.6702 14.7888C22.6702 14.7888 22.6961 14.7633 22.7091 14.7633V14.757Z" fill="#294F4A"/>
<path d="M14.1157 21.2166L14.1327 21.2277L14.1157 21.2166Z" fill="#294F4A"/>
<path d="M14.3101 20.9236L14.3489 20.9873C14.3619 20.9554 14.3425 20.9363 14.3101 20.9236Z" fill="#294F4A"/>
<path d="M22.7158 15.6551L22.8325 15.5723C22.7936 15.585 22.7547 15.6169 22.7158 15.6551Z" fill="#294F4A"/>
<path d="M15.0425 18.1016C15.0425 18.1016 15.0425 18.1207 15.0425 18.127C15.0486 18.1207 15.0486 18.1079 15.0425 18.1016Z" fill="#294F4A"/>
<path d="M26.0146 24.2106C26.0146 24.2106 26.0406 24.2042 26.0535 24.1979C26.0341 24.1787 26.0146 24.1724 26.0146 24.2106Z" fill="#294F4A"/>
<path d="M26.2026 28.3259C26.1378 28.3387 26.1119 28.4597 26.1248 28.5553C26.1767 28.5234 26.2091 28.4661 26.2026 28.3259Z" fill="#294F4A"/>
<path d="M28.799 26.1274L28.7881 26.1218L28.799 26.1274Z" fill="#294F4A"/>
<path d="M28.3346 26.7969C28.3346 26.7969 28.2828 26.7969 28.2568 26.8089C28.2828 26.8089 28.3087 26.8089 28.3346 26.7969Z" fill="#294F4A"/>
<path d="M16.3191 30.8358C17.1292 31.0588 18.2115 31.0588 18.9957 31.2053C19.1966 30.976 19.4428 31.0014 19.7021 30.9505L19.715 31.2754L19.9354 31.1798C20.0196 31.2817 19.7669 31.2308 19.9224 31.3646L20.0067 31.1671C20.0196 31.2945 20.564 31.2435 20.1946 31.4792C20.4798 31.4729 20.7714 31.4792 21.0501 31.4537C21.238 31.4537 21.1344 31.1734 21.3482 31.2371C21.4001 31.3263 21.2834 31.3072 21.3093 31.4219C21.9704 31.5939 21.9315 30.7148 22.4953 30.7594L22.4565 30.8103C22.5342 30.7084 22.7092 30.6766 22.6962 30.632C22.5537 30.3262 22.6379 30.8294 22.4305 30.6766C22.3852 30.4026 22.599 30.4854 22.5407 30.2816C22.6833 30.3517 22.7222 30.1797 22.8194 30.1414C23.0462 30.2688 23.2666 30.065 23.4675 30.237C23.5323 30.1287 23.5388 29.8357 23.7137 29.7656C23.9211 29.9248 23.7526 29.9694 23.96 29.9822L23.9341 29.8229C24.0896 29.7911 24.0832 29.842 24.1026 29.9121C24.2646 29.8548 24.148 29.6573 24.3813 29.67L24.3359 29.8548C24.459 29.7401 24.5239 29.7465 24.7312 29.6637C24.7636 29.7465 24.6859 29.7783 24.6146 29.7847C24.822 29.9503 24.7572 29.6063 24.822 29.5999C24.7766 29.5426 24.6275 29.5808 24.6211 29.4025C24.7312 29.3834 24.7248 29.1158 24.8803 29.2496L24.8479 29.4343C24.9905 29.2305 24.8609 29.205 25.1136 29.1413C25.1136 29.1604 25.1331 29.1922 25.146 29.2241C25.1914 28.9693 25.4636 29.0393 25.671 28.9247L25.658 28.982C25.7099 28.8865 25.6775 28.7399 25.7293 28.7208C25.5673 28.7145 25.5738 28.6508 25.4765 28.5297C25.7682 28.6635 25.5284 28.1347 25.846 28.1156C25.8978 28.1921 25.9043 28.3195 25.7876 28.2876C25.8589 28.5616 25.9821 28.7718 25.8978 28.9693C25.9626 28.861 26.0469 28.7527 26.0857 28.861L25.9691 28.6316C26.0209 28.587 26.0728 28.5743 26.1117 28.5425C26.0404 28.3959 25.8524 28.4023 25.9172 28.2303C26.008 28.071 26.1441 28.3896 26.0987 28.2813C26.2283 28.0647 26.0145 28.0073 26.2413 27.9436C26.2413 27.9755 26.2283 28.0328 26.1959 28.0264C26.3839 28.0073 26.4811 27.7589 26.7079 27.9564C26.7338 28.0264 26.7922 28.0965 26.7209 28.1156L26.6949 28.0774C26.6949 28.3641 26.7727 27.9373 26.9088 28.1793C26.7922 28.0647 26.9996 27.9373 27.0968 27.8927L26.9477 27.7716C26.831 27.1346 27.1875 28.0647 27.3949 27.7716C27.4727 27.5296 27.2977 27.7907 27.3042 27.606C27.4338 27.5232 27.5958 27.606 27.693 27.3894C27.7902 27.3958 27.9522 27.3703 28.1143 27.5041C28.1467 27.3512 28.4707 27.2493 28.367 27.0581C28.0819 27.1282 28.38 27.383 27.9846 27.4085L27.8874 27.2174C28.03 27.09 28.0948 26.8415 28.2374 26.7906C28.192 26.7906 28.1402 26.7587 28.1143 26.7205C28.2244 26.4721 28.0948 26.2873 28.2957 26.1217C28.4707 26.2045 28.3541 26.3064 28.3022 26.402C28.5226 26.3574 28.4189 26.2746 28.6133 26.0962C28.7623 26.179 28.5031 26.23 28.6198 26.3447C28.6651 26.2555 28.704 26.1727 28.7429 26.0771L28.7688 26.0962C28.5614 25.9115 28.9049 25.9242 28.9309 25.7331C29.1382 25.3763 28.8466 25.147 28.7429 24.8603C28.8336 24.8412 28.9049 24.8603 28.9568 24.9113C28.8012 24.9432 28.8984 24.9686 28.9503 25.0323C28.9827 24.9049 29.3262 24.8858 29.391 25.0005C29.4169 24.7712 29.2225 25.0069 29.203 24.854C29.2484 24.7648 29.3003 24.682 29.3456 24.5928C29.203 24.5673 29.1318 24.6501 29.0929 24.4717C29.1058 24.3443 29.1577 24.2997 29.229 24.1468C29.2873 24.1914 29.4493 24.1723 29.391 24.287C29.4752 24.2297 29.5271 24.115 29.4104 24.0194C29.229 24.1468 29.391 23.7009 29.1382 23.7583L29.3197 23.6308C29.3067 23.6691 29.391 23.7009 29.3456 23.7519C29.566 23.771 29.3391 23.5926 29.3327 23.5289C29.391 23.478 29.4558 23.3314 29.5336 23.3378C29.4947 23.2677 29.5725 23.1467 29.6891 23.1467C29.6697 23.0511 29.553 23.1085 29.4947 23.0639L29.5725 22.7899C29.6891 22.8027 30.0196 22.8409 30.052 22.8982C29.9678 22.7645 29.715 22.7899 29.7669 22.6307C29.9743 22.7708 29.9808 22.4396 30.227 22.6307C30.4085 22.5606 30.4539 22.2739 30.4085 22.1083C30.24 21.9873 30.2854 22.2676 30.0974 22.2293C30.0844 21.7898 29.5725 21.7261 29.6826 21.433L29.6243 21.5095C29.5271 21.3184 29.5465 21.3375 29.391 21.2292C29.6178 21.2929 30.0261 21.0317 29.9678 20.7068C29.8511 20.6877 29.7474 20.8916 29.566 20.8406L29.5271 20.6367C29.5271 20.6367 29.5854 20.6367 29.6178 20.6686C29.5336 20.4966 29.8965 20.3055 29.6178 20.2736L29.9419 20.0507L29.8058 20.1398C29.6891 20.1271 29.6373 19.9232 29.5789 19.885C29.4234 19.6939 29.5076 19.6111 29.6373 19.4646C29.5465 19.5219 29.3521 19.6429 29.2873 19.4901C29.6567 19.42 29.3521 19.1269 29.5401 19.0887C29.5206 19.025 29.6049 18.8785 29.4493 18.9103L29.6762 18.8658C29.3521 18.9295 29.3003 18.6938 29.1901 18.5281C29.6243 18.4326 29.0864 18.3434 29.4364 18.1332C29.1447 18.2032 29.203 17.8529 28.9503 17.9229C28.879 17.7955 29.1382 17.7 29.2095 17.6235L29.0799 17.6044C29.1836 17.477 29.067 17.2158 29.0734 17.0183L28.7688 17.0056L28.8466 16.8973C28.7753 16.91 28.6716 16.8208 28.6327 16.9355L28.6003 16.8591C28.3476 17.0056 28.4707 16.8017 28.2828 16.7317C28.3022 16.6743 28.367 16.6425 28.4189 16.6552C28.38 16.5851 28.5226 16.5342 28.5744 16.445C28.542 16.5278 27.9717 16.4959 27.9911 16.7444C27.9004 16.8208 27.7578 16.7762 27.7578 16.6807L27.9393 16.4896L27.6671 16.5788C27.5699 16.5087 27.6671 16.3685 27.6282 16.2794C27.6995 16.3431 28.1726 16.1519 27.9911 15.9417C28.1078 16.0309 28.2698 15.9991 28.3605 16.0245C28.3346 15.9736 28.3346 15.9354 28.4772 15.9417C28.2763 15.8143 28.3022 15.9799 28.1402 15.8334C28.3281 15.6996 28.3476 15.6041 28.2828 15.4002L28.2439 15.6232C28.2439 15.6232 28.1985 15.6423 28.1791 15.6423C28.192 15.6996 28.1791 15.7315 28.1143 15.8016C28.0883 15.7633 27.7384 15.8016 27.8161 15.6805C27.68 16.0691 27.356 15.6041 27.2847 15.8462C27.2199 15.878 27.1162 15.7825 27.1875 15.6933C27.4338 15.6933 27.2912 15.4193 27.4208 15.3238C27.3301 15.3238 27.3949 15.5404 27.2717 15.5404C27.1875 15.4831 27.2329 15.3302 27.2393 15.2346H27.3042L27.2588 15.0499C27.1616 15.1136 27.2393 15.2983 27.0903 15.241C27.0903 15.1773 26.9477 15.1263 27.0125 15.0562C27.1745 14.9862 27.2782 14.795 27.4014 14.8524C27.3106 14.7823 27.0255 14.5848 26.9931 14.8396L26.9023 14.7504C26.9023 14.8779 26.9542 15.1454 26.7403 15.0116L26.7727 14.9798L26.5264 15.0053L26.5459 14.8651C26.5135 14.9161 26.4552 14.9352 26.4098 14.897C26.4422 14.8333 26.4098 14.7759 26.4681 14.7059C26.3061 14.6039 26.2542 14.7059 26.1959 14.7504C26.1052 14.7059 26.0987 14.6422 26.2154 14.5593C26.1182 14.4447 25.8848 14.3491 25.8654 14.1899C25.645 14.1771 25.8719 14.2536 25.6969 14.33C25.7617 13.8968 25.2108 13.8841 24.8997 13.814C24.8349 14.1707 24.8025 13.814 24.6275 14.0879C24.7377 14.0115 24.459 13.7312 24.7507 13.7375L24.5757 13.7121C24.5368 13.4891 24.8997 13.6738 24.8285 13.3681C24.634 13.3107 24.3813 13.6229 24.2128 13.4318C24.3618 13.2152 24.0183 13.4636 24.1544 13.2152C24.2257 13.1451 24.2841 13.1897 24.3554 13.1897L24.3294 13.1324C23.9211 12.9412 24.122 13.3808 23.8628 13.4827C23.61 13.4445 23.7137 13.247 23.7267 13.126C23.6943 13.0687 23.5582 13.0814 23.474 13.126C23.6684 13.0113 23.7332 13.3362 23.623 13.4764C23.5776 13.177 23.2536 13.3808 23.1758 13.4764C23.461 13.8395 23.4221 13.5337 23.6619 13.9223C23.7267 13.8458 23.785 13.5974 23.9471 13.7567C23.7915 13.8458 23.9147 13.8968 23.9341 13.9414C23.9341 13.7885 24.0832 13.9159 24.1544 13.8777C24.1674 14.0051 23.9406 14.1644 24.1026 14.279L24.2517 13.9669C24.3035 14.0433 24.135 14.1962 24.3165 14.1707C24.1739 14.3109 24.2387 14.4383 24.0313 14.4256C24.1544 14.7887 24.4396 14.3937 24.6729 14.3682C24.647 14.381 24.6275 14.4192 24.5951 14.4319C24.6729 14.3682 24.7377 14.4001 24.8025 14.4064C24.8868 14.5275 24.6405 14.5084 24.634 14.6039L24.822 14.6804C24.822 14.6804 24.822 14.6995 24.822 14.7059C24.8933 14.6867 24.9516 14.6867 24.9257 14.7696C24.822 14.8396 24.7507 14.9288 24.6729 14.9989L24.9646 14.8779C24.8933 14.967 25.0229 15.1327 24.8544 15.1327C24.9516 15.1645 25.0488 15.1964 25.1395 15.2346L25.0423 15.4448C25.1201 15.4448 25.1525 15.4066 25.0942 15.3365C25.146 15.4321 25.7099 15.2346 25.3988 15.585C25.6969 15.5659 25.7293 15.6678 26.0209 15.757C25.7163 15.7888 26.0339 16.1201 25.7941 16.0564C25.8265 16.2157 26.0145 16.0373 26.1181 16.0819C26.1181 16.222 25.9302 16.3622 25.8006 16.3558H25.9626L25.9302 16.3877L26.0987 16.3622C26.0987 16.5278 25.9496 16.5469 26.0145 16.6425L26.1765 16.5151L26.1441 16.6552C26.1894 16.566 26.2672 16.5851 26.3385 16.6361L26.3061 16.668L26.4033 16.7125C26.2413 16.7253 26.4357 16.8081 26.2931 16.8718C26.345 16.9419 26.3515 16.9355 26.4746 17.0311L26.5653 16.9228C26.7922 16.9992 26.4098 17.0629 26.5005 17.1967L26.6237 17.0884C26.5524 17.426 26.9866 17.3177 26.9477 17.5534C26.857 17.4961 26.7144 17.6235 26.7533 17.598C26.8829 17.6872 26.9736 17.9038 27.2199 17.942C27.0384 18.1077 26.9801 18.1523 26.9542 18.3306C27.019 18.4198 27.0449 18.4198 27.181 18.3943C27.1421 18.5281 27.3495 18.6555 27.1875 18.7256C27.3301 18.6938 27.194 18.8212 27.3236 18.8339L27.2588 18.8721L27.4078 18.8084C27.1292 19.1015 27.7189 19.0441 27.4597 19.3244L27.4078 19.3053L27.4921 19.3626C27.4273 19.3945 27.3754 19.3754 27.2847 19.3945C27.3106 19.5092 27.3236 19.6302 27.3366 19.7449L27.4402 19.6493C27.4727 19.7194 27.6412 19.7385 27.5634 19.8468C27.2912 19.7512 27.5763 19.9678 27.3884 20.0252L27.3106 19.9615C27.3322 20.0294 27.397 20.0507 27.5051 20.0252C27.5828 20.1526 27.2069 20.159 27.4014 20.2609V20.1717C27.4856 20.1335 27.6347 20.1781 27.6347 20.2418C27.6088 20.2609 27.5439 20.3118 27.518 20.2673C27.5893 20.3692 27.518 20.5412 27.5893 20.5858C27.5439 20.6495 27.4273 20.6367 27.3754 20.6049C27.531 20.8278 27.3495 20.7068 27.4986 20.9361H27.4078L27.5245 21.0126L27.3236 21.1209L27.4467 21.0827C27.4597 21.1591 27.5245 21.2101 27.4662 21.2929L27.3301 21.2483C27.4014 21.4649 27.0773 21.4713 27.2588 21.6879C27.2329 21.7006 27.194 21.6624 27.1681 21.6433C27.369 21.8535 26.9023 21.7452 27.1421 21.9618C27.0968 21.9427 27.0384 21.9554 26.9995 21.9427L27.0773 22.0382L26.8959 22L27.1551 22.1147L26.9542 22.1274L27.0384 22.1784C26.6625 22.1911 26.9088 22.3695 26.6172 22.4141L26.8505 22.4523C27.2393 22.8855 26.3839 23.032 26.4552 23.4206L26.2867 23.3378L26.4228 23.5608C26.2542 23.5671 26.2996 23.4525 26.2024 23.4334C26.2283 23.6181 26.4228 23.6117 26.3903 23.8028C26.2283 23.8283 26.2867 23.7137 26.2413 23.6436C26.2413 23.8347 26.2089 24.115 26.0469 24.1596C26.0663 24.1723 26.0922 24.1978 26.1052 24.1978C26.1117 24.3443 25.9561 24.4271 25.8913 24.5291C25.8265 24.4781 25.833 24.4463 25.833 24.408C25.7941 24.4399 25.7099 24.4526 25.7617 24.5354L25.658 24.4017C25.5802 24.459 25.5738 24.6883 25.4182 24.5864C25.483 24.6246 25.5867 24.7138 25.5284 24.7712C25.2886 24.6246 25.4701 25.0196 25.2562 25.0196C25.2173 24.9623 25.2756 24.8794 25.2562 24.8986C25.1525 24.8986 25.2108 25.0323 25.2367 25.1343L25.1655 25.0387L25.0488 25.37C24.8285 25.198 24.8479 25.5993 24.7248 25.4273C24.634 25.491 24.8803 25.4592 24.7896 25.5802C24.6859 25.5165 24.7248 25.7076 24.6146 25.5611V25.5356L24.5433 25.6057L24.4785 25.4273C24.4396 25.5101 24.4979 25.6885 24.5757 25.8032C24.4461 25.7713 24.4007 25.9115 24.2711 25.7968V25.7458C24.1156 25.9369 23.6878 25.5356 23.7008 25.886C23.6749 25.8732 23.6554 25.8286 23.6813 25.8159C23.6425 25.835 23.6036 25.8605 23.5582 25.8732L23.5193 25.7395L23.4221 26.0261L23.3832 25.9433C23.2342 25.9815 23.0462 26.1217 22.8777 26.2236V26.1726C22.7416 26.3829 22.6703 26.1726 22.5601 26.3128C22.5601 26.2873 22.5601 26.2809 22.5601 26.2682L22.4305 26.3192V26.2236C22.3981 26.4466 22.0741 26.0707 22.1843 26.2109C22.1583 26.3064 22.0935 26.4402 22.1065 26.5549C21.9639 26.6058 22.0352 26.4529 21.925 26.402C21.8213 26.4147 21.8343 26.574 21.6723 26.5294L21.6528 26.4402C21.588 26.4721 21.5621 26.5421 21.4714 26.574L21.4908 26.523C21.3677 26.7396 21.2575 26.2937 21.1992 26.7078C21.1214 26.6441 21.0047 26.7141 20.9918 26.5294C20.8168 26.6632 20.6677 26.7396 20.4733 26.8161C20.4344 26.5167 20.4344 26.8352 20.3113 26.6632L20.3242 26.8224C20.0391 26.8479 19.7539 26.4275 19.4623 26.4593L19.4752 26.3001L19.391 26.4721C19.0864 26.3447 18.704 26.2109 18.4642 26.1281C18.367 26.1854 18.1726 26.3447 18.0689 26.2364L18.0883 26.2172C17.8356 26.23 17.5763 26.1981 17.3754 26.007C17.4208 25.9497 17.4208 25.8987 17.4597 25.8669C17.3236 26.007 17.3236 25.8095 17.2782 25.7841V25.9242C17.1421 26.0261 17.1162 25.8478 17.1421 25.7267L16.9542 25.8286C16.9542 25.8286 16.9542 25.7841 16.9671 25.7586L16.9088 25.8223L16.9671 25.6057C16.9218 25.6312 16.7662 25.6057 16.6107 25.7522C16.6366 25.6885 16.5783 25.5866 16.669 25.5929L16.3644 25.3126V25.4082C16.2802 25.5483 16.1117 25.5547 16.1117 25.4528C16.2607 25.4018 16.2607 25.2744 16.3061 25.1597C16.2089 25.198 16.2542 25.2999 16.1765 25.3572C16.0533 25.4018 15.8978 25.3509 15.9108 25.268L15.9885 25.2426C15.8719 25.2298 16.0274 24.9814 15.9496 24.9368C15.8006 24.9814 15.833 24.8476 15.658 25.0642C15.5219 25.026 15.7552 24.8986 15.7423 24.8476C15.6062 24.9049 15.5543 24.7202 15.6386 24.6119C15.2821 24.8476 15.5349 24.287 15.2627 24.4909L15.3534 24.2934C15.2821 24.3507 15.1071 24.4654 15.0229 24.4271C15.0553 24.3061 15.1979 24.2233 15.2627 24.1468L14.9581 24.3125C14.997 23.7646 14.5174 23.427 14.634 22.8791C14.4979 22.7199 14.2581 22.5224 14.2452 22.2739L14.297 22.2867C14.297 22.2039 14.3165 22.1211 14.3359 22.0382C14.297 22.1019 14.2517 22.172 14.2128 22.2421C14.1544 22.2039 14.0896 22.172 14.0832 22.121C14.1674 21.8216 14.2905 21.4776 14.1026 21.1655C13.6878 20.9616 14.4526 21.019 14.1609 20.8278C14.1998 20.847 14.2517 20.8533 14.2905 20.8661C14.1544 20.6558 14.1026 20.5412 13.8822 20.2927C14.2711 20.3628 13.8887 20.1526 14.0961 20.1972L13.9406 20.159C14.0443 20.1207 14.0961 20.0188 14.2128 20.0507L14.0313 19.9232L14.1933 19.9424C14.2322 19.8277 14.1609 19.5347 14.4979 19.5601C14.3359 19.2098 14.5887 18.7829 14.8155 18.5154C14.7248 18.4071 14.7701 18.3115 14.8025 18.2287C14.8738 18.2351 14.9451 18.2542 15.0099 18.2733C14.997 18.1905 14.8479 17.9803 14.984 17.9994C15.0034 18.0121 15.0099 18.0249 15.0164 18.0376C15.0164 17.9484 15.159 17.9803 15.0682 17.8019C15.1331 17.7446 15.2562 17.7637 15.3729 17.9102C15.146 17.6745 15.5349 17.8337 15.5284 17.8401C15.5284 17.8401 15.7293 17.7063 16.1311 17.5343C16.5264 17.3623 17.1486 17.1521 17.9263 16.9865C19.4752 16.6297 21.5686 16.5151 22.5018 15.7379C22.5731 15.585 22.7416 15.4958 22.7027 15.3047C22.8323 15.2537 22.8583 15.5404 22.9036 15.3875C22.7481 15.2665 23.0008 14.9862 22.8583 14.7696L22.9684 14.7441C23.0008 14.6358 22.8064 14.8587 22.8583 14.6549L22.7935 14.9479C22.7092 14.897 22.6703 14.8269 22.6509 14.725C22.5537 14.8333 22.4694 15.2282 22.2879 15.0371L22.3463 15.0244C22.1843 15.0244 22.2685 14.8269 22.2361 14.7696H22.2685L22.1454 14.6167C22.2361 14.725 22.4305 14.502 22.3398 14.5084C22.1519 14.4064 22.3852 14.5848 22.2361 14.6103C22.1454 14.6167 22.1843 14.4638 22.1972 14.3682H22.0352C22.0482 14.2281 22.1389 14.381 22.087 14.2344L21.8732 14.3682C21.8602 14.0178 21.6399 14.5211 21.5686 14.1899C21.7241 14.1134 21.5621 14.0688 21.5945 13.9605H21.2251C21.1927 13.9096 21.3288 13.8522 21.2705 13.8713C21.2056 13.7758 21.1538 13.9541 21.1149 13.9478C21.089 13.8522 20.8427 13.9478 20.8557 13.7121C20.6094 13.5528 20.7455 14.0051 20.5122 13.865C20.4798 13.7248 20.7001 13.8331 20.5964 13.6866L20.3502 13.7375C20.3696 13.6675 20.3955 13.5082 20.4863 13.5401C19.8317 13.3553 19.4234 12.6291 18.7948 12.8648C18.6911 12.7055 18.8466 12.7501 18.9049 12.6355C18.4642 12.8903 18.205 12.3361 17.7967 12.4061L17.8097 12.5463C17.1681 12.215 16.507 12.5909 15.7941 12.6291L15.9043 12.6992C15.8524 12.8521 15.7099 12.9094 15.6256 13.0049C15.5867 12.9476 15.6062 12.6992 15.4312 12.8202C15.4895 12.8521 15.5867 12.8775 15.5802 12.9476C14.8933 12.7884 13.6813 13.3808 12.6898 13.9478C12.1194 14.4574 11.5102 15.0053 11.0112 15.6614C10.5446 16.2794 10.1622 16.9355 9.96132 17.6171C10.0326 17.4133 10.3178 17.6171 10.1881 17.7382C9.49469 17.9803 10.052 18.4772 9.57246 18.8148C9.59191 19.6238 9.01511 20.3246 9.47525 21.0827L9.30675 21.1018C9.22898 21.2164 9.35211 21.2419 9.37156 21.3566H9.32619C9.27434 21.6369 9.46877 21.9554 9.41692 22.121L9.60487 22.1083C9.64375 22.2676 9.47525 22.2102 9.60487 22.3631H9.51413L9.71504 22.5351C9.38452 22.5734 9.77985 22.9874 9.65671 23.1467C9.76041 23.3442 10.0002 23.6882 10.0326 24.0067C9.89651 24.115 10.0196 24.4909 10.0391 24.7584C10.2724 25.2043 10.6288 25.8223 10.9399 26.3892L11.1149 26.2682L11.2121 26.402C11.1732 26.4275 11.1668 26.4593 11.1344 26.4466C11.0047 26.6887 11.4195 26.7141 11.3741 26.9053C11.4778 26.7269 11.3288 26.797 11.2769 26.7141C11.2769 26.5485 11.5232 26.5358 11.5426 26.7396L11.5038 26.7651L11.6658 26.797C11.5427 26.9052 11.5491 27.0454 11.426 27.1537C11.8084 27.555 12.262 27.6379 12.6055 28.0647C12.437 28.1602 12.9296 28.294 12.6314 28.4533C12.962 28.587 12.7611 28.2239 13.0268 28.1602C13.0916 28.2239 13.2212 28.2176 13.1564 28.3195C13.0721 28.3513 13.0851 28.517 13.0073 28.4851C13.0657 28.5297 13.1305 28.5679 13.1953 28.6062C13.1953 28.638 13.1305 28.6444 13.0981 28.6444C13.5582 28.7782 13.6101 29.2942 14.0572 29.3642C14.148 29.2878 13.9406 29.2496 14.0313 29.1668C14.4915 29.1922 14.2193 29.5299 14.6275 29.5808L14.4785 29.6764C14.6405 29.6445 14.7507 29.5554 14.8609 29.7592C14.8025 29.9376 14.634 29.8165 14.5109 29.8357C14.6275 29.9185 14.9646 30.0331 14.9516 29.8357C15.1266 29.8548 15.1007 30.0331 15.159 30.116C15.1849 30.0777 15.0747 29.9376 15.2043 29.8994C15.3534 30.0968 15.6775 30.2243 15.9237 30.3517C15.9043 30.3899 15.8913 30.4663 15.8654 30.4791C16.1635 30.3389 15.9885 30.7084 16.2996 30.7721L16.3191 30.8358Z" fill="#BFE03E"/>
<path d="M28.8855 26.0518L28.8013 26.1218C28.8337 26.1473 28.8726 26.1728 28.8855 26.2429V26.0518Z" fill="#294F4A"/>
<path d="M25.1521 29.2371C25.1521 29.2371 25.146 29.2753 25.146 29.3008C25.1642 29.2817 25.1582 29.2625 25.1521 29.2371Z" fill="#294F4A"/>
<path d="M24.2 30.0332C24.2648 29.9631 24.1741 29.944 24.1157 29.9185C24.1287 29.9567 24.1481 29.9949 24.2 30.0332Z" fill="#294F4A"/>
<path d="M29.5659 23.3572C29.5659 23.3572 29.5983 23.3954 29.6372 23.4018C29.6113 23.3699 29.5854 23.3572 29.5659 23.3572Z" fill="#294F4A"/>
<path d="M28.4385 16.1711C28.4385 16.1711 28.4385 16.1965 28.4385 16.2093C28.4446 16.1965 28.4446 16.1838 28.4385 16.1711Z" fill="#294F4A"/>
<path d="M28.4385 16.6746C28.4385 16.6746 28.4709 16.7128 28.5033 16.7319C28.4903 16.6937 28.4644 16.6809 28.4385 16.6746Z" fill="#294F4A"/>
<path d="M28.9697 25.0515C28.9697 25.0515 28.9697 25.1089 28.9892 25.1471C29.0086 25.1089 28.9892 25.077 28.9697 25.0515Z" fill="#294F4A"/>
<path d="M28.5874 16.7828L28.6263 16.8783L28.6587 16.8592L28.5874 16.7764V16.7828Z" fill="#294F4A"/>
<path d="M28.3735 16.05C28.393 16.0882 28.4254 16.1328 28.4319 16.171C28.4448 16.1009 28.4189 16.0627 28.3735 16.05Z" fill="#294F4A"/>
<path d="M29.6436 20.6814C29.6436 20.6814 29.6436 20.6878 29.6436 20.6942C29.7278 20.7706 29.6889 20.7196 29.6436 20.6814Z" fill="#294F4A"/>
<path d="M29.0991 17.0186V17.0365H29.1639L29.0991 17.0186Z" fill="#294F4A"/>
<path d="M28.1403 15.6423C28.1403 15.6423 28.1727 15.6614 28.1986 15.6614L28.1727 15.5977C28.1727 15.5977 28.1468 15.6296 28.1338 15.6359L28.1403 15.6423Z" fill="#294F4A"/>
<path d="M29.7278 19.1143C29.65 19.1016 29.6047 19.1016 29.5723 19.1143C29.5852 19.1462 29.6176 19.1589 29.7278 19.1143Z" fill="#294F4A"/>
</g>
<defs>
<clipPath id="clip0_1_1886">
<rect width="40" height="40" fill="white" transform="translate(0 0.5)"/>
</clipPath>
</defs>
</svg>
